<svg width="54" height="54" viewBox="0 0 54 54" fill="none" xmlns="http://www.w3.org/2000/svg">
<path d="M3.9375 22.5008V31.5008C3.9375 37.8648 3.9375 41.0467 5.91453 43.0238C6.40354 43.5128 6.96627 43.8808 7.63263 44.1578C7.61752 44.0578 7.60324 43.9575 7.58972 43.857C7.31218 41.7926 7.31232 39.2147 7.31249 36.2229L7.3125 18.0007L7.31249 17.7785C7.31232 14.7866 7.31218 12.2087 7.58972 10.1444C7.60322 10.044 7.61749 9.94375 7.63259 9.84375C6.96624 10.1208 6.40353 10.4888 5.91453 10.9778C3.9375 12.9548 3.9375 16.1368 3.9375 22.5008Z" fill="#1C274C"/>
<path d="M48.9375 22.5008V31.5008C48.9375 37.8648 48.9375 41.0467 46.9605 43.0238C46.4715 43.5128 45.9087 43.8808 45.2424 44.1578C45.2575 44.0578 45.2718 43.9575 45.2853 43.857C45.5628 41.7926 45.5627 39.2147 45.5625 36.2228V17.7785C45.5627 14.7866 45.5628 12.2087 45.2853 10.1444C45.2718 10.044 45.2575 9.94375 45.2424 9.84375C45.9088 10.1208 46.4715 10.4888 46.9605 10.9778C48.9375 12.9548 48.9375 16.1368 48.9375 22.5008Z" fill="#1C274C"/>
<path fillRule="evenodd" clipRule="evenodd" d="M12.6645 6.47703C10.6875 8.45406 10.6875 11.636 10.6875 18V36C10.6875 42.364 10.6875 45.5459 12.6645 47.523C14.6416 49.5 17.8235 49.5 24.1875 49.5H28.6875C35.0515 49.5 38.2334 49.5 40.2105 47.523C42.1875 45.5459 42.1875 42.364 42.1875 36V18C42.1875 11.636 42.1875 8.45406 40.2105 6.47703C38.2334 4.5 35.0515 4.5 28.6875 4.5H24.1875C17.8235 4.5 14.6416 4.5 12.6645 6.47703ZM18 38.25C18 37.318 18.7555 36.5625 19.6875 36.5625H26.4375C27.3695 36.5625 28.125 37.318 28.125 38.25C28.125 39.182 27.3695 39.9375 26.4375 39.9375H19.6875C18.7555 39.9375 18 39.182 18 38.25ZM19.6875 27.5625C18.7555 27.5625 18 28.318 18 29.25C18 30.182 18.7555 30.9375 19.6875 30.9375H33.1875C34.1195 30.9375 34.875 30.182 34.875 29.25C34.875 28.318 34.1195 27.5625 33.1875 27.5625H19.6875ZM18 20.25C18 19.318 18.7555 18.5625 19.6875 18.5625H33.1875C34.1195 18.5625 34.875 19.318 34.875 20.25C34.875 21.182 34.1195 21.9375 33.1875 21.9375H19.6875C18.7555 21.9375 18 21.182 18 20.25Z" fill="#1C274C"/>
</svg>
