<svg width="72" height="72" viewBox="0 0 72 72" fill="none" xmlns="http://www.w3.org/2000/svg">
  <path d="M14.6245 63L8.98828 57.375H14.6245V63Z" fill="#0D725A" />
  <path d="M57.375 63L63.0112 57.375H57.375V63Z" fill="#0D725A" />
  <path d="M57.3755 14.625H48.3867V5.63623L57.3755 14.625Z" fill="#B2B2B2" />
  <path
    d="M48.375 5.625H16.4138C15.9393 5.625 15.4844 5.81346 15.1489 6.14891C14.8135 6.48437 14.625 6.93934 14.625 7.41375V64.7887C14.625 65.2642 14.8131 65.7203 15.1482 66.0576C15.4834 66.3948 15.9383 66.5858 16.4138 66.5887H55.5863C55.8265 66.5874 56.064 66.5379 56.2848 66.4433C56.5057 66.3487 56.7053 66.2108 56.872 66.0378C57.0387 65.8648 57.1691 65.6602 57.2555 65.436C57.3419 65.2118 57.3825 64.9726 57.375 64.7325V14.625H48.375V5.625Z"
    fill="#E9E9E0" />
  <path d="M36.3269 31.5114L27.9681 22.9727L19.6094 31.5114H36.3269Z" stroke="#2A9F85"
    strokeLinecap="round" strokeLinejoin="round" />
  <path d="M32.7148 27.8215L40.8261 19.564L52.3011 31.5115H36.3261L32.7148 27.8215Z"
    stroke="#2A9F85" strokeLinecap="round" strokeLinejoin="round" />
  <path
    d="M28.7125 18.675C30.1415 18.675 31.3 17.5165 31.3 16.0875C31.3 14.6585 30.1415 13.5 28.7125 13.5C27.2835 13.5 26.125 14.6585 26.125 16.0875C26.125 17.5165 27.2835 18.675 28.7125 18.675Z"
    stroke="#2A9F85" strokeLinecap="round" strokeLinejoin="round" />
  <path
    d="M10.125 37.125H61.875C62.1734 37.125 62.4595 37.2435 62.6705 37.4545C62.8815 37.6655 63 37.9516 63 38.25V57.375H9V38.25C9 37.9516 9.11853 37.6655 9.32951 37.4545C9.54048 37.2435 9.82663 37.125 10.125 37.125Z"
    fill="#2A9F85" />
  <path
    d="M45.0437 45.8735C44.9954 45.6945 44.9244 45.5368 44.8306 45.4005C44.7369 45.2613 44.6218 45.1434 44.4854 45.0468C44.3491 44.9502 44.1928 44.8778 44.0167 44.8295C43.8406 44.7783 43.6474 44.7528 43.4371 44.7528C43.0138 44.7528 42.6474 44.855 42.3377 45.0596C42.0309 45.2641 41.7937 45.5624 41.6261 45.9545C41.4585 46.3437 41.3746 46.8167 41.3746 47.3735C41.3746 47.9332 41.4556 48.4104 41.6175 48.8053C41.7795 49.2002 42.0138 49.5013 42.3207 49.7087C42.6275 49.9161 42.9996 50.0198 43.4371 50.0198C43.8235 50.0198 44.1502 49.9573 44.4173 49.8323C44.6871 49.7045 44.8917 49.5241 45.0309 49.2911C45.1701 49.0581 45.2397 48.784 45.2397 48.4687L45.6317 48.5155H43.5096V46.9772H47.2724V48.132C47.2724 48.9133 47.1062 49.5823 46.7738 50.1391C46.4442 50.6959 45.9897 51.1235 45.4102 51.4218C44.8335 51.7201 44.1701 51.8692 43.4201 51.8692C42.5877 51.8692 41.8562 51.6888 41.2255 51.328C40.5948 50.9672 40.1033 50.453 39.7511 49.7854C39.3988 49.115 39.2227 48.3195 39.2227 47.3991C39.2227 46.6832 39.3292 46.0482 39.5423 45.4942C39.7553 44.9374 40.0522 44.4658 40.4329 44.0795C40.8164 43.6931 41.2596 43.4005 41.7624 43.2016C42.2681 43.0028 42.8121 42.9033 43.3945 42.9033C43.9002 42.9033 44.3704 42.9758 44.805 43.1207C45.2425 43.2655 45.6289 43.4701 45.9641 43.7343C46.3022 43.9985 46.5764 44.3124 46.7866 44.676C46.9968 45.0397 47.1275 45.4388 47.1786 45.8735H45.0437Z"
    fill="white" />
  <path
    d="M28.2422 43.0225H30.8544L33.0703 48.4259H33.1726L35.3885 43.0225H38.0007V51.7497H35.9467V46.3889H35.8743L33.7777 51.6943H32.4652L30.3686 46.3591H30.2962V51.7497H28.2422V43.0225Z"
    fill="white" />
  <path d="M26.918 43.0225V51.7497H24.8086V43.0225H26.918Z" fill="white" />
</svg>
  