<svg width="12" height="12" viewBox="0 0 12 12" fill="none" xmlns="http://www.w3.org/2000/svg">
<path d="M6.00002 9.5C5.93422 9.50038 5.86899 9.48776 5.80807 9.46288C5.74715 9.438 5.69174 9.40134 5.64502 9.355L2.68002 6.36C2.62768 6.31517 2.58517 6.26001 2.55516 6.19798C2.52515 6.13595 2.50828 6.06838 2.50562 5.99952C2.50296 5.93066 2.51456 5.862 2.5397 5.79784C2.56484 5.73367 2.60297 5.6754 2.6517 5.62667C2.70042 5.57794 2.7587 5.53981 2.82286 5.51468C2.88702 5.48954 2.95569 5.47794 3.02455 5.4806C3.09341 5.48326 3.16097 5.50012 3.22301 5.53013C3.28504 5.56015 3.3402 5.60266 3.38502 5.655L6.00002 8.27L8.61502 5.655C8.65984 5.60266 8.715 5.56015 8.77704 5.53013C8.83907 5.50012 8.90664 5.48326 8.9755 5.4806C9.04435 5.47794 9.11302 5.48954 9.17718 5.51468C9.24135 5.53981 9.29962 5.57794 9.34835 5.62667C9.39707 5.6754 9.4352 5.73367 9.46034 5.79784C9.48548 5.862 9.49708 5.93066 9.49442 5.99952C9.49176 6.06838 9.4749 6.13595 9.44489 6.19798C9.41487 6.26001 9.37236 6.31517 9.32002 6.36L6.35502 9.33C6.31043 9.38088 6.25597 9.42218 6.19495 9.4514C6.13393 9.48062 6.06762 9.49715 6.00002 9.5Z" fill="white"/>
<path d="M6 9.50001C5.86739 9.50001 5.74021 9.44733 5.64645 9.35356C5.55268 9.25979 5.5 9.13262 5.5 9.00001V3.04001C5.5 2.9074 5.55268 2.78022 5.64645 2.68646C5.74021 2.59269 5.86739 2.54001 6 2.54001C6.13261 2.54001 6.25979 2.59269 6.35355 2.68646C6.44732 2.78022 6.5 2.9074 6.5 3.04001V9.00001C6.5 9.13262 6.44732 9.25979 6.35355 9.35356C6.25979 9.44733 6.13261 9.50001 6 9.50001Z" fill="white"/>
</svg>
