<svg width="12" height="12" viewBox="0 0 12 12" fill="none" xmlns="http://www.w3.org/2000/svg">
<path d="M7.40992 6L10.9999 2.44C11.1909 2.24639 11.2971 1.98486 11.2952 1.71293C11.2933 1.441 11.1835 1.18096 10.9899 0.990001C10.7963 0.799045 10.5348 0.692821 10.2628 0.694696C9.99092 0.696571 9.73088 0.806393 9.53992 1L5.99992 4.59L2.45992 1.07C2.27256 0.88375 2.0191 0.779208 1.75492 0.779208C1.49073 0.779208 1.23728 0.88375 1.04992 1.07C0.956191 1.16296 0.881796 1.27357 0.831028 1.39542C0.780259 1.51728 0.754121 1.64799 0.754121 1.78C0.754121 1.91201 0.780259 2.04272 0.831028 2.16458C0.881796 2.28644 0.956191 2.39704 1.04992 2.49L4.58992 6L0.999919 9.56C0.808963 9.75361 0.702739 10.0151 0.704614 10.2871C0.70649 10.559 0.816311 10.819 1.00992 11.01C1.20353 11.201 1.46506 11.3072 1.73699 11.3053C2.00892 11.3034 2.26896 11.1936 2.45992 11L5.99992 7.41L9.53992 10.93C9.72728 11.1163 9.98073 11.2208 10.2449 11.2208C10.5091 11.2208 10.7626 11.1163 10.9499 10.93C11.0436 10.837 11.118 10.7264 11.1688 10.6046C11.2196 10.4827 11.2457 10.352 11.2457 10.22C11.2457 10.088 11.2196 9.95728 11.1688 9.83542C11.118 9.71356 11.0436 9.60296 10.9499 9.51L7.40992 6Z" fill="#A1A1A1"/>
</svg>
