<svg width="215" height="200" viewBox="0 0 215 200" fill="none" xmlns="http://www.w3.org/2000/svg">
<path d="M202.692 219.414L202.697 219.409L202.703 219.405C222.838 203.748 245.905 182.782 270.527 154.862C270.561 154.938 270.597 155.019 270.635 155.106C270.901 155.71 271.268 156.587 271.674 157.679C272.488 159.862 273.454 162.893 274.069 166.287C275.303 173.1 275.102 181.238 269.613 186.998C252.119 204.835 233.452 221.308 213.757 236.291C193.965 251.127 173.206 264.428 151.64 276.094C144.76 279.678 137.56 277.174 131.981 273.656C129.201 271.904 126.858 269.92 125.208 268.371C124.383 267.598 123.734 266.934 123.291 266.466C123.207 266.376 123.13 266.294 123.061 266.219C155.928 250.723 182.147 234.476 202.692 219.414Z" stroke="#DCDDDD"/>
<path d="M219.809 243.798L219.809 243.798L219.82 243.79C233.856 232.883 249.933 218.266 267.091 198.857C267.274 199.275 267.522 199.869 267.795 200.603C268.362 202.123 269.034 204.232 269.463 206.593C270.324 211.34 270.176 216.965 266.393 220.94C254.175 233.398 241.142 244.908 227.394 255.383C213.561 265.745 199.057 275.039 183.99 283.195C179.254 285.661 174.285 283.945 170.4 281.495C168.468 280.276 166.837 278.895 165.688 277.817C165.115 277.278 164.663 276.817 164.355 276.491C164.348 276.484 164.341 276.477 164.335 276.469C187.198 265.636 205.48 254.308 219.809 243.798Z" stroke="#DCDDDD"/>
<path d="M73.2244 104.219C74.487 128.238 82.3063 156.955 89.295 179.036C84.5234 180.801 79.9085 182.379 75.4095 183.917C72.9604 184.754 70.5456 185.58 68.1586 186.417C64.8533 187.566 61.7311 188.626 58.7782 189.629C52.8249 191.65 47.56 193.437 42.8712 195.246C35.849 197.956 30.0713 200.732 25.1353 204.455C24.6852 204.794 24.0127 205.268 23.2581 205.8C22.8048 206.12 22.3219 206.46 21.8397 206.805C20.8857 207.486 19.9253 208.19 19.2457 208.756C10.0661 184.397 3.50023 147.491 1.3903 108.55C-1.21357 57.6786 1.51947 16.4231 14.6176 -9.76914C15.2755 -11.0812 16.9342 -12.8646 19.4257 -14.9927C21.8991 -17.1053 25.1368 -19.5116 28.8828 -22.0724C36.3734 -27.1932 45.8664 -32.9117 55.2716 -38.1067C64.6777 -43.3021 73.9831 -47.9668 81.098 -50.9835C84.659 -52.4933 87.6521 -53.5819 89.8274 -54.1212C90.9194 -54.3919 91.7726 -54.5156 92.3752 -54.4984C93.017 -54.4801 93.1779 -54.3128 93.2137 -54.2389C94.4311 -51.7237 95.0078 -48.4051 95.0641 -44.3552C95.1204 -40.3103 94.6575 -35.5736 93.8257 -30.2458C92.3557 -20.8311 89.7433 -9.62755 86.8492 2.78428C86.4667 4.42477 86.0793 6.08638 85.6889 7.76775C79.0075 36.5451 71.4797 71.0553 73.2244 104.219Z" stroke="#DCDDDD"/>
<path d="M218.085 71.286L218.086 71.2855C230.873 53.5154 240.193 40.5963 250.032 33.1658C250.032 33.1657 250.032 33.1656 250.033 33.1654L250.334 33.5644C251.312 32.8237 254.023 31.0635 255.371 30.2291L218.085 71.286ZM218.085 71.286C216.147 73.9864 214.11 77.0183 212.015 80.1356C211.605 80.7462 211.192 81.36 210.778 81.9753C208.356 85.5714 205.868 89.2201 203.362 92.573C189.7 78.9947 171.767 62.8954 155.252 53.1809L155.252 53.1807C135.33 41.4821 109.277 32.6131 87.8323 27.2227C88.4778 24.1727 89.055 21.3083 89.6148 18.5303C90.5582 13.8484 91.4521 9.41208 92.5404 4.74671C95.4261 -7.61924 97.7585 -18.7867 99.0732 -28.5184C100.341 -37.9041 100.667 -45.9867 99.6139 -52.5376C123.963 -48.0557 157.587 -33.2407 189.883 -14.3239C214.04 -0.0787735 239.106 15.4663 254.987 29.8791L218.085 71.286Z" stroke="#DCDDDD"/>
<path d="M20.8918 216.45C22.2395 214.016 24.5605 211.74 27.7357 209.548C30.908 207.357 34.9043 205.27 39.5668 203.203C47.8063 199.55 58.0686 195.985 69.4423 192.034C70.9465 191.512 72.47 190.983 74.0109 190.446C100.367 181.259 131.729 169.799 157.116 150.637C182.5 131.476 203.097 103.708 220.012 80.2193C221.012 78.8304 221.999 77.4566 222.973 76.1006C230.248 65.9778 236.813 56.8421 242.779 49.769C246.16 45.76 249.336 42.4295 252.326 39.9645C255.321 37.4959 258.096 35.9238 260.674 35.3831C260.692 35.3792 260.751 35.3722 260.875 35.4495C261.005 35.5301 261.17 35.6823 261.367 35.9332C261.76 36.4341 262.203 37.2326 262.686 38.3181C263.646 40.4811 264.712 43.6697 265.822 47.5924C268.04 55.4312 270.414 66.1288 272.46 77.2396C274.506 88.3496 276.223 99.8597 277.131 109.322C277.585 114.054 277.836 118.266 277.826 121.655C277.816 125.069 277.54 127.575 276.985 128.947C265.933 156.201 237.429 184.13 198.565 213.61C179.099 228.261 160.827 240.438 143.952 249.201C127.073 257.967 111.62 263.302 97.7873 264.299C96.4122 264.395 94.1282 263.838 91.1177 262.703C88.1323 261.578 84.5091 259.914 80.4936 257.871C72.4643 253.786 62.9013 248.2 53.8001 242.417C44.6983 236.633 36.0707 230.66 29.9101 225.8C26.827 223.369 24.3771 221.228 22.7955 219.537C22.0021 218.689 21.4477 217.975 21.1377 217.411C20.8069 216.808 20.8421 216.539 20.8918 216.45Z" stroke="#DCDDDD"/>
<path d="M95.807 170.208L95.8059 170.208C95.617 170.095 95.3536 169.825 95.0282 169.335C94.7112 168.858 94.3651 168.219 93.9949 167.428C93.2551 165.846 92.4393 163.701 91.5817 161.128C89.8673 155.984 88.0002 149.175 86.25 141.85C82.7474 127.19 79.7284 110.53 79.3297 101.07C78.9371 91.6525 79.7295 76.123 81.3514 62.4915C82.1624 55.6764 83.1788 49.3517 84.3537 44.5118C84.9415 42.0905 85.5653 40.056 86.2165 38.5227C86.5421 37.7562 86.8698 37.1261 87.1964 36.6395C87.5258 36.1489 87.8366 35.8306 88.1182 35.6558L88.1184 35.6557C88.2858 35.5517 88.5861 35.4571 89.0605 35.409C89.5251 35.3619 90.1121 35.3634 90.8165 35.4156C92.2247 35.52 94.0512 35.823 96.2073 36.3009C100.516 37.2561 106.089 38.8976 112.158 40.9904C124.301 45.177 138.38 51.1508 148.256 56.9986C157.671 62.5775 169.145 70.3226 178.42 77.8552C183.059 81.6222 187.136 85.3268 190.129 88.6733C191.625 90.3466 192.843 91.9217 193.724 93.3629C194.608 94.809 195.134 96.0919 195.282 97.1848C195.32 97.4676 195.283 97.8606 195.139 98.3749C194.997 98.8842 194.761 99.4825 194.431 100.164C193.771 101.526 192.757 103.178 191.453 105.047C188.845 108.781 185.107 113.331 180.8 118.068C172.185 127.544 161.343 137.714 152.826 143.544C144.121 149.5 131.515 157.217 120.211 162.914C114.557 165.763 109.245 168.098 104.919 169.457C102.754 170.136 100.854 170.566 99.2917 170.698C97.715 170.832 96.5545 170.657 95.807 170.208Z" stroke="#DCDDDD"/>
</svg>
