<svg width="215" height="200" viewBox="0 0 215 200" fill="none" xmlns="http://www.w3.org/2000/svg">
<path d="M202.692 219.414L202.697 219.409L202.703 219.405C222.838 203.748 245.905 182.782 270.527 154.862C270.561 154.938 270.597 155.019 270.635 155.106C270.901 155.71 271.268 156.587 271.674 157.679C272.488 159.862 273.454 162.893 274.069 166.287C275.303 173.1 275.102 181.238 269.613 186.998C252.119 204.835 233.452 221.308 213.757 236.291C193.965 251.127 173.206 264.428 151.64 276.094C144.76 279.678 137.56 277.174 131.981 273.656C129.201 271.904 126.858 269.92 125.208 268.371C124.383 267.598 123.734 266.934 123.291 266.466C123.207 266.376 123.13 266.294 123.061 266.219C155.928 250.723 182.147 234.476 202.692 219.414Z" stroke="#F2F2F2"/>
<path d="M219.809 243.798L219.809 243.798L219.82 243.79C233.856 232.883 249.933 218.266 267.091 198.857C267.274 199.275 267.522 199.869 267.795 200.603C268.361 202.123 269.034 204.232 269.462 206.593C270.324 211.34 270.175 216.965 266.393 220.94C254.174 233.398 241.142 244.908 227.394 255.383C213.561 265.745 199.056 275.039 183.989 283.195C179.254 285.661 174.285 283.945 170.4 281.495C168.468 280.276 166.837 278.895 165.688 277.817C165.114 277.278 164.662 276.817 164.355 276.491C164.348 276.484 164.341 276.477 164.334 276.469C187.197 265.636 205.48 254.308 219.809 243.798Z" stroke="#F2F2F2"/>
<path d="M73.2244 104.219C74.487 128.238 82.3063 156.955 89.295 179.036C84.5234 180.801 79.9085 182.379 75.4095 183.917C72.9604 184.754 70.5456 185.58 68.1586 186.417C64.8533 187.566 61.7311 188.626 58.7782 189.629C52.8249 191.65 47.56 193.437 42.8712 195.246C35.849 197.956 30.0713 200.732 25.1353 204.455C24.6852 204.794 24.0127 205.268 23.2581 205.8C22.8048 206.12 22.3219 206.46 21.8397 206.805C20.8857 207.486 19.9253 208.19 19.2457 208.756C10.0661 184.397 3.50023 147.491 1.3903 108.55C-1.21357 57.6786 1.51947 16.4231 14.6176 -9.76914C15.2755 -11.0812 16.9342 -12.8646 19.4257 -14.9927C21.8991 -17.1053 25.1368 -19.5116 28.8828 -22.0724C36.3734 -27.1932 45.8664 -32.9117 55.2716 -38.1067C64.6777 -43.3021 73.9831 -47.9668 81.098 -50.9835C84.659 -52.4933 87.6521 -53.5819 89.8274 -54.1212C90.9194 -54.3919 91.7726 -54.5156 92.3752 -54.4984C93.017 -54.4801 93.1779 -54.3128 93.2137 -54.2389C94.4311 -51.7237 95.0078 -48.4051 95.0641 -44.3552C95.1204 -40.3103 94.6575 -35.5736 93.8257 -30.2458C92.3557 -20.8311 89.7433 -9.62755 86.8492 2.78428C86.4667 4.42477 86.0793 6.08638 85.6889 7.76775C79.0075 36.5451 71.4797 71.0553 73.2244 104.219Z" stroke="#F2F2F2"/>
<path d="M218.085 71.286L218.086 71.2855C230.873 53.5154 240.193 40.5963 250.032 33.1658C250.032 33.1657 250.033 33.1656 250.033 33.1654L250.334 33.5644C251.312 32.8237 254.024 31.0635 255.372 30.2291L218.085 71.286ZM218.085 71.286C216.147 73.9864 214.11 77.0183 212.015 80.1356C211.605 80.7462 211.193 81.36 210.778 81.9753C208.357 85.5714 205.868 89.2201 203.362 92.573C189.701 78.9947 171.767 62.8954 155.252 53.1809L155.252 53.1807C135.331 41.4821 109.277 32.6131 87.8326 27.2227C88.4781 24.1727 89.0553 21.3083 89.615 18.5303C90.5585 13.8484 91.4524 9.41208 92.5406 4.74671C95.4263 -7.61924 97.7588 -18.7867 99.0734 -28.5184C100.341 -37.9041 100.667 -45.9867 99.6141 -52.5376C123.964 -48.0557 157.588 -33.2407 189.883 -14.3239C214.041 -0.0787735 239.106 15.4663 254.987 29.8791L218.085 71.286Z" stroke="#F2F2F2"/>
<path d="M20.8922 216.45C22.24 214.016 24.561 211.74 27.7361 209.548C30.9085 207.357 34.9048 205.27 39.5673 203.203C47.8067 199.55 58.069 195.985 69.4428 192.034C70.9469 191.512 72.4705 190.983 74.0114 190.446C100.368 181.259 131.73 169.799 157.116 150.637C182.501 131.476 203.097 103.708 220.012 80.2193C221.012 78.8304 222 77.4566 222.974 76.1006C230.248 65.9778 236.813 56.8421 242.779 49.769C246.161 45.76 249.337 42.4295 252.327 39.9645C255.321 37.4959 258.096 35.9238 260.674 35.3831C260.693 35.3792 260.751 35.3722 260.876 35.4495C261.005 35.5301 261.171 35.6823 261.368 35.9332C261.76 36.4341 262.204 37.2326 262.686 38.3181C263.647 40.4811 264.713 43.6697 265.823 47.5924C268.041 55.4312 270.414 66.1288 272.46 77.2396C274.507 88.3496 276.224 99.8597 277.132 109.322C277.586 114.054 277.837 118.266 277.827 121.655C277.817 125.069 277.541 127.575 276.985 128.947C265.934 156.201 237.429 184.13 198.566 213.61C179.1 228.261 160.828 240.438 143.952 249.201C127.073 257.967 111.62 263.302 97.7878 264.299C96.4126 264.395 94.1287 263.838 91.1182 262.703C88.1328 261.578 84.5096 259.914 80.4941 257.871C72.4648 253.786 62.9018 248.2 53.8006 242.417C44.6988 236.633 36.0712 230.66 29.9106 225.8C26.8275 223.369 24.3776 221.228 22.796 219.537C22.0026 218.689 21.4482 217.975 21.1382 217.411C20.8074 216.808 20.8426 216.539 20.8922 216.45Z" stroke="#F2F2F2"/>
<path d="M95.8065 170.208L95.8054 170.208C95.6165 170.095 95.3531 169.825 95.0278 169.335C94.7107 168.858 94.3646 168.219 93.9944 167.428C93.2546 165.846 92.4388 163.701 91.5812 161.128C89.8668 155.984 87.9997 149.175 86.2496 141.85C82.7469 127.19 79.7279 110.53 79.3292 101.07C78.9366 91.6525 79.729 76.123 81.351 62.4915C82.1619 55.6764 83.1783 49.3517 84.3532 44.5118C84.941 42.0905 85.5648 40.056 86.216 38.5227C86.5416 37.7562 86.8693 37.1261 87.1959 36.6395C87.5253 36.1489 87.8361 35.8306 88.1178 35.6558L88.1179 35.6557C88.2853 35.5517 88.5857 35.4571 89.06 35.409C89.5246 35.3619 90.1116 35.3634 90.816 35.4156C92.2242 35.52 94.0507 35.823 96.2068 36.3009C100.516 37.2561 106.088 38.8976 112.158 40.9904C124.3 45.177 138.38 51.1508 148.255 56.9986C157.67 62.5775 169.144 70.3226 178.42 77.8552C183.058 81.6222 187.135 85.3268 190.128 88.6733C191.625 90.3466 192.843 91.9217 193.723 93.3629C194.607 94.809 195.134 96.0919 195.282 97.1848C195.32 97.4676 195.282 97.8606 195.139 98.3749C194.997 98.8842 194.76 99.4825 194.43 100.164C193.77 101.526 192.757 103.178 191.452 105.047C188.845 108.781 185.106 113.331 180.8 118.068C172.184 127.544 161.343 137.714 152.826 143.544C144.121 149.5 131.515 157.217 120.211 162.914C114.557 165.763 109.245 168.098 104.918 169.457C102.754 170.136 100.854 170.566 99.2912 170.698C97.7146 170.832 96.554 170.657 95.8065 170.208Z" stroke="#F2F2F2"/>
</svg>
