<svg width="16" height="16" viewBox="0 0 16 16" fill="none" xmlns="http://www.w3.org/2000/svg">
<path d="M4.68748 12.5891L4.68748 13.7969C4.68748 13.9016 4.80779 13.9594 4.88904 13.8953L11.9328 8.39374C11.9926 8.3472 12.0411 8.2876 12.0744 8.2195C12.1077 8.1514 12.125 8.07659 12.125 8.00077C12.125 7.92496 12.1077 7.85015 12.0744 7.78204C12.0411 7.71394 11.9926 7.65435 11.9328 7.6078L4.88904 2.10624C4.80623 2.04218 4.68748 2.09999 4.68748 2.20468L4.68748 3.41249C4.68748 3.48906 4.72341 3.56249 4.78279 3.60937L10.4078 7.99999L4.78279 12.3922C4.72341 12.4391 4.68748 12.5125 4.68748 12.5891Z" fill="#141414"/>
</svg>
