<svg width="322" height="145" viewBox="0 0 322 145" fill="none" xmlns="http://www.w3.org/2000/svg">
<path fill-rule="evenodd" clip-rule="evenodd" d="M68.7449 115.167H204.153C204.919 115.167 205.666 115.103 206.385 114.982C207.104 115.103 207.851 115.167 208.617 115.167H285.993C291.745 115.167 296.409 111.566 296.409 107.123C296.409 102.68 291.745 99.078 285.993 99.078H277.065C271.312 99.078 266.649 95.4763 266.649 91.0333C266.649 86.5904 271.312 82.9887 277.065 82.9887H305.337C311.089 82.9887 315.753 79.387 315.753 74.944C315.753 70.5011 311.089 66.8993 305.337 66.8993H272.601C278.353 66.8993 283.017 63.2976 283.017 58.8547C283.017 54.4117 278.353 50.81 272.601 50.81H177.369C183.121 50.81 187.785 47.2083 187.785 42.7654C187.785 38.3224 183.121 34.7207 177.369 34.7207H92.5529C86.8003 34.7207 82.1369 38.3224 82.1369 42.7654C82.1369 47.2083 86.8003 50.81 92.5529 50.81H33.0329C27.2803 50.81 22.6169 54.4117 22.6169 58.8547C22.6169 63.2976 27.2803 66.8993 33.0329 66.8993H70.2329C75.9855 66.8993 80.6489 70.5011 80.6489 74.944C80.6489 79.387 75.9855 82.9887 70.2329 82.9887H10.7129C4.96028 82.9887 0.296875 86.5904 0.296875 91.0333C0.296875 95.4763 4.96028 99.078 10.7129 99.078H68.7449C62.9923 99.078 58.3289 102.68 58.3289 107.123C58.3289 111.566 62.9923 115.167 68.7449 115.167ZM311.288 115.168C317.04 115.168 321.704 111.566 321.704 107.123C321.704 102.68 317.04 99.0786 311.288 99.0786C305.535 99.0786 300.872 102.68 300.872 107.123C300.872 111.566 305.535 115.168 311.288 115.168Z" fill="#F3F4F6"/>
<path fill-rule="evenodd" clip-rule="evenodd" d="M101.904 143.001C83.8244 143.001 69.168 128.763 69.168 111.199C69.168 93.6354 83.8244 79.3971 101.904 79.3971C102.673 79.3971 103.435 79.4229 104.191 79.4735C103.666 76.5686 103.392 73.5772 103.392 70.5221C103.392 42.7468 126.043 20.2305 153.984 20.2305C176.291 20.2305 195.225 34.5813 201.955 54.502C203.549 54.3363 205.169 54.2513 206.808 54.2513C231.873 54.2513 252.192 74.1186 252.192 98.6263C252.192 121.909 233.853 141.119 210.528 142.969V143.001H126.468H101.904ZM119.754 143.001H109.391H119.754Z" fill="white"/>
<path d="M119.754 143.001H109.391M101.904 143.001C83.8244 143.001 69.168 128.763 69.168 111.199C69.168 93.6354 83.8244 79.3971 101.904 79.3971C102.673 79.3971 103.435 79.4229 104.191 79.4735C103.666 76.5686 103.392 73.5772 103.392 70.5221C103.392 42.7468 126.043 20.2305 153.984 20.2305C176.291 20.2305 195.225 34.5813 201.955 54.502C203.549 54.3363 205.169 54.2513 206.808 54.2513C231.873 54.2513 252.192 74.1186 252.192 98.6263C252.192 121.909 233.853 141.119 210.528 142.969V143.001H126.468H101.904Z" stroke="#78829D" stroke-width="2.5" stroke-linecap="round"/>
<path fill-rule="evenodd" clip-rule="evenodd" d="M138.528 31.0914C138.528 78.7548 181.711 118.03 237.313 123.333C230.345 131.85 219.584 137.628 207.325 138.536V138.564H107.475C95.3599 138.564 75.1211 133.49 75.1211 111.271C75.1211 89.0516 90.8554 83.9776 107.475 83.9776C108.181 83.9776 108.883 83.9997 109.577 84.0432C109.094 81.5502 109.01 78.9806 108.843 76.361C107.714 58.6654 115.48 36.3637 138.555 29.1055C138.537 29.7671 138.528 30.4285 138.528 31.0914ZM154.158 105.664C149.637 105.664 145.971 109.265 145.971 113.706C145.971 118.148 149.637 121.748 154.158 121.748C158.68 121.748 162.345 118.148 162.345 113.706C162.345 109.265 158.68 105.664 154.158 105.664Z" fill="#E5E7EB"/>
<path d="M154.731 122.292C159.251 122.292 162.915 118.65 162.915 114.157C162.915 109.664 159.251 106.021 154.731 106.021C150.211 106.021 146.547 109.664 146.547 114.157C146.547 118.65 150.211 122.292 154.731 122.292Z" stroke="#78829D" stroke-width="2.5"/>
<path d="M131.664 97.1473L142.08 89.022L131.664 81.2871" stroke="#78829D" stroke-width="2.5" stroke-linecap="round" stroke-linejoin="round"/>
<path d="M177.789 97.1473L167.373 89.022L177.789 81.2871" stroke="#78829D" stroke-width="2.5" stroke-linecap="round" stroke-linejoin="round"/>
<path d="M168.864 35.0215C178.549 37.5695 186.197 45.0988 188.863 54.6843" stroke="#99A1B7" stroke-width="2.5" stroke-linecap="round"/>
<path d="M200.112 9.875C202.578 9.875 204.576 7.88826 204.576 5.4375C204.576 2.98674 202.578 1 200.112 1C197.647 1 195.648 2.98674 195.648 5.4375C195.648 7.88826 197.647 9.875 200.112 9.875Z" stroke="#99A1B7" stroke-width="2"/>
<path d="M246.241 33.541C248.707 33.541 250.705 31.5543 250.705 29.1035C250.705 26.6528 248.707 24.666 246.241 24.666C243.776 24.666 241.777 26.6528 241.777 29.1035C241.777 31.5543 243.776 33.541 246.241 33.541Z" fill="#99A1B7"/>
<path d="M211.656 21.3496L224.093 33.7128M224.282 21.3496L211.845 33.7128L224.282 21.3496Z" stroke="#99A1B7" stroke-width="2.5" stroke-linecap="round" stroke-linejoin="round"/>
<path d="M71.2578 47.7363L80.1858 56.6113M80.1858 47.7363L71.2578 56.6113L80.1858 47.7363Z" stroke="#99A1B7" stroke-width="2.5" stroke-linecap="round" stroke-linejoin="round"/>
<path d="M91.4874 37.9805C93.9528 37.9805 95.9514 35.9937 95.9514 33.543C95.9514 31.0922 93.9528 29.1055 91.4874 29.1055C89.022 29.1055 87.0234 31.0922 87.0234 33.543C87.0234 35.9937 89.022 37.9805 91.4874 37.9805Z" fill="#99A1B7"/>
</svg>
