<svg width="36" height="45" viewBox="0 0 36 45" fill="none" xmlns="http://www.w3.org/2000/svg">
<path d="M26.1303 35.2298C28.7336 33.2054 31.7194 30.4893 34.9069 26.8657C34.9069 26.8657 36.2742 29.6317 34.8188 31.1585C32.5671 33.4542 30.1646 35.5744 27.6297 37.5029C25.0823 39.4124 22.4105 41.1244 19.6346 42.6259C17.803 43.5806 15.8242 41.2782 15.8242 41.2782C20.083 39.2765 23.4758 37.1759 26.1303 35.2298Z" fill="white"/>
<path d="M28.3304 38.3655C30.1496 36.9519 32.2368 35.0519 34.4648 32.5225C34.4648 32.5225 35.4207 34.4554 34.404 35.5231C32.8308 37.1272 31.1526 38.6094 29.3823 39.9582C27.6011 41.2924 25.7334 42.4892 23.7932 43.5394C22.5131 44.2067 21.1299 42.597 21.1299 42.597C24.1024 41.1947 26.475 39.7264 28.3304 38.3655Z" fill="white"/>
<path d="M31.0126 42.5977C31.7782 42.0191 32.3931 41.3726 32.7807 40.7873L32.8433 40.7393L32.549 45L28.6973 43.8691L28.8259 43.7748C29.4734 43.576 30.247 43.1726 31.0126 42.5977Z" fill="white"/>
<path d="M9.58622 20.4677C9.7492 23.5683 10.765 27.2833 11.668 30.1295C10.6989 30.4895 9.77828 30.7892 8.89198 31.1002C6.32384 31.9926 4.63319 32.4629 3.37775 33.41C3.19098 33.5505 2.70554 33.8737 2.55489 34.0217C1.35407 30.8825 0.495972 26.0883 0.221978 21.0313C-0.112805 14.4908 0.236955 9.17085 1.92937 5.7866C2.65709 4.33527 11.8037 -0.645453 12.15 0.0698482C13.4486 2.75293 9.13866 11.9604 9.58622 20.4677Z" fill="url(#paint0_linear_10824_34983)"/>
<path d="M11.9427 7.6669C12.6845 4.4881 13.14 1.93318 12.836 0.236816C15.9848 0.794733 20.359 2.71728 24.5534 5.17419C27.6907 7.02417 30.954 9.0485 32.9979 10.923C32.8605 11.005 32.4349 11.2792 32.2931 11.3867C31.0377 12.3347 29.8457 13.9859 28.1991 16.2741C27.6044 17.1025 26.9374 18.174 26.2608 19.0712C24.4988 17.3155 22.173 15.2214 20.0356 13.9642C17.4631 12.4535 14.0897 11.3094 11.3242 10.6186C11.5533 9.54139 11.7154 8.64137 11.9427 7.6669Z" fill="url(#paint1_linear_10824_34983)"/>
<path d="M2.73682 34.8701C4.17639 32.2709 13.7591 31.3021 20.2689 26.3883C26.7787 21.4745 30.841 12.1388 33.6091 11.5583C34.3483 11.4037 36.3913 22.1615 35.779 23.6751C34.3509 27.1969 30.6727 30.797 25.6756 34.5874C20.6671 38.3571 16.2656 40.8593 12.6843 41.1175C11.146 41.2249 2.3527 35.5638 2.73682 34.8701Z" fill="url(#paint2_linear_10824_34983)"/>
<path d="M25.2785 19.5583C25.3833 20.334 21.9941 24.0735 19.7924 25.5804C17.5503 27.1147 13.2994 29.5556 12.392 29.0109C11.7999 28.6575 10.3454 22.5147 10.2423 20.0691C10.141 17.6386 10.6511 12.0679 11.4026 11.6014C11.9426 11.2659 16.6516 12.8351 19.2013 14.3448C21.6267 15.782 25.1128 18.3351 25.2785 19.5583Z" fill="url(#paint3_linear_10824_34983)"/>
<defs>
<linearGradient id="paint0_linear_10824_34983" x1="6.2516" y1="0.000108707" x2="6.2516" y2="34.0255" gradientUnits="userSpaceOnUse">
<stop stop-color="#FFD316"/>
<stop offset="1" stop-color="#F9A31F"/>
</linearGradient>
<linearGradient id="paint1_linear_10824_34983" x1="28.0942" y1="17.1175" x2="11.5301" y2="1.63382" gradientUnits="userSpaceOnUse">
<stop stop-color="#FFD316"/>
<stop offset="1" stop-color="#F9A31F"/>
</linearGradient>
<linearGradient id="paint2_linear_10824_34983" x1="8.59112" y1="41.3324" x2="36.8309" y2="14.933" gradientUnits="userSpaceOnUse">
<stop stop-color="#FFD316"/>
<stop offset="1" stop-color="#F9A31F"/>
</linearGradient>
<linearGradient id="paint3_linear_10824_34983" x1="10.2264" y1="20.3226" x2="25.2811" y2="20.3226" gradientUnits="userSpaceOnUse">
<stop stop-color="#FFD316"/>
<stop offset="1" stop-color="#F9A31F"/>
</linearGradient>
</defs>
</svg>
