<svg width="224" height="112" viewBox="0 0 224 112" fill="none" xmlns="http://www.w3.org/2000/svg">
<g clip-path="url(#clip0_5_8968)">
<path d="M111.753 30.9473C121.453 30.9473 126.303 36.5732 126.303 47.8249V51.3858H116.968V47.1634C116.968 42.755 115.317 40.5515 112.016 40.5531C108.715 40.5547 107.064 42.7581 107.063 47.1634C107.063 50.1941 108.071 53.1005 110.087 55.8825C111.048 57.1432 112.088 58.3336 113.198 59.4457L115.83 62.0706C116.181 62.4155 116.488 62.711 116.751 62.962C118.213 64.3992 119.382 65.6502 120.259 66.7152C121.424 68.0583 122.465 69.5187 123.367 71.076C125.381 74.5758 126.389 78.4854 126.391 82.8047C126.391 94.0643 121.482 99.6941 111.666 99.6941C101.849 99.6941 96.9404 94.0643 96.9404 82.8047V76.2788H106.276V83.4521C106.276 87.8308 107.984 90.0202 111.402 90.0202C114.791 90.0202 116.486 87.8308 116.486 83.4521C116.486 80.4214 115.492 77.5283 113.505 74.7728C112.538 73.5027 111.499 72.297 110.394 71.1627L106.843 67.6441C105.382 66.2085 104.199 64.9575 103.295 63.8909C102.158 62.5508 101.131 61.1083 100.225 59.5794C98.2063 56.0381 97.1585 51.9609 97.2014 47.8132C97.2028 36.5692 102.053 30.9473 111.753 30.9473Z" fill="#404041"/>
<path d="M161.192 98.9221H151.245L149.534 86.7243H137.441L135.73 98.9221H126.658L136.695 31.6978H151.157L161.192 98.9221ZM138.666 77.5923H148.221L143.445 43.6048L138.666 77.5923Z" fill="#404041"/>
<path d="M177.928 31.6978C187.744 31.6978 192.653 37.2447 192.653 48.3385V57.06C192.653 68.1225 187.744 73.6538 177.928 73.6538H173.237V98.9221H163.369V31.6978H177.928ZM173.237 41.3083V64.0902H177.925C181.142 64.0902 182.75 61.9649 182.75 57.7144V47.6277C182.75 43.4054 181.142 41.2942 177.925 41.2942L173.237 41.3083Z" fill="#404041"/>
<path d="M209.275 31.6978C219.092 31.6978 224 37.2447 224 48.3385V57.06C224 68.1225 219.092 73.6538 209.275 73.6538H204.595V98.9221H194.727V31.6978H209.275ZM204.595 41.3083V64.0902H209.284C212.5 64.0902 214.108 61.9649 214.108 57.7144V47.6277C214.108 43.4054 212.5 41.2942 209.284 41.2942L204.595 41.3083Z" fill="#404041"/>
<path d="M64.7709 87.6886C71.2509 82.65 78.6825 75.8895 86.6163 66.8701C86.6163 66.8701 90.0197 73.7549 86.397 77.555C80.7926 83.2692 74.8127 88.5465 68.5032 93.3466C62.1626 98.0994 55.5121 102.361 48.6028 106.098C44.0438 108.474 39.1187 102.744 39.1187 102.744C49.719 97.7612 58.1638 92.5326 64.7709 87.6886Z" fill="#404041"/>
<path d="M70.2488 95.4928C74.7771 91.9742 79.972 87.2452 85.5178 80.9492C85.5178 80.9492 87.897 85.7603 85.3665 88.4181C81.4505 92.4108 77.2734 96.0998 72.8671 99.4572C68.4337 102.778 63.7847 105.757 58.9555 108.371C55.7692 110.032 52.3264 106.025 52.3264 106.025C59.7252 102.535 65.6306 98.8801 70.2488 95.4928Z" fill="#404041"/>
<path d="M76.924 106.028C78.8296 104.587 80.3602 102.978 81.3251 101.521L81.4808 101.402L80.7484 112.007L71.1611 109.192L71.4813 108.958C73.0931 108.463 75.0184 107.459 76.924 106.028Z" fill="#404041"/>
<path d="M23.593 50.9447C23.9986 58.6622 26.527 67.9091 28.7747 74.9933C26.3626 75.8894 24.071 76.6353 21.865 77.4094C15.4727 79.6308 11.2646 80.8014 8.13977 83.1588C7.67488 83.5083 6.46661 84.3129 6.09163 84.6812C3.10274 76.8675 0.966877 64.9347 0.284892 52.3475C-0.5484 36.068 0.322172 22.8262 4.53468 14.4027C6.346 10.7902 29.1124 -1.60705 29.9742 0.173368C33.2065 6.85171 22.479 29.7696 23.593 50.9447Z" fill="url(#paint0_linear_5_8968)"/>
<path d="M29.4591 19.0822C31.3055 11.17 32.4392 4.81072 31.6827 0.588379C39.52 1.97706 50.4076 6.76238 60.8479 12.8777C68.6567 17.4824 76.7791 22.5211 81.8666 27.1868C81.5245 27.3909 80.4653 28.0735 80.1123 28.3409C76.9874 30.7007 74.0205 34.8105 69.922 40.5059C68.4418 42.5679 66.7818 45.235 65.0977 47.4681C60.7119 43.098 54.9227 37.8857 49.6028 34.7565C43.1996 30.9963 34.8031 28.1486 27.9197 26.4291C28.4898 23.7479 28.8933 21.5077 29.4591 19.0822Z" fill="url(#paint1_linear_5_8968)"/>
<path d="M6.54578 86.7922C10.1289 80.3226 33.9808 77.9112 50.184 65.6804C66.3871 53.4497 76.4985 30.2128 83.3885 28.7678C85.2283 28.3831 90.3136 55.1598 88.7896 58.927C85.2349 67.6931 76.0797 76.6538 63.6417 86.0884C51.1752 95.4714 40.2196 101.699 31.3055 102.342C27.4768 102.61 5.58969 88.5186 6.54578 86.7922Z" fill="url(#paint2_linear_5_8968)"/>
<path d="M62.6528 48.6813C62.9137 50.6118 54.4777 59.9197 48.9977 63.6706C43.4169 67.4895 32.8362 73.5649 30.5776 72.2091C29.104 71.3294 25.4835 56.0399 25.227 49.9527C24.9748 43.903 26.2444 30.0373 28.115 28.8761C29.4592 28.041 41.1801 31.9467 47.5263 35.7046C53.5633 39.2819 62.2405 45.6365 62.6528 48.6813Z" fill="url(#paint3_linear_5_8968)"/>
<path d="M100.484 111.871L100.247 110.423H98.5544L98.3175 111.871H97.0522L98.4557 103.895H100.471L101.874 111.871H100.484ZM100.059 109.342L99.4008 105.31L98.743 109.342H100.059Z" fill="#404041"/>
<path d="M105.822 103.897C106.515 103.897 107.03 104.065 107.368 104.399C107.545 104.591 107.682 104.822 107.77 105.075C107.857 105.328 107.894 105.598 107.876 105.868V109.9C107.894 110.169 107.857 110.44 107.77 110.693C107.682 110.946 107.545 111.176 107.368 111.369C107.03 111.703 106.515 111.871 105.822 111.871H103.642V103.895L105.822 103.897ZM105.019 110.731H105.795C105.98 110.742 106.163 110.681 106.308 110.559C106.379 110.48 106.433 110.385 106.465 110.28C106.498 110.176 106.509 110.066 106.497 109.956V105.811C106.509 105.702 106.498 105.591 106.465 105.487C106.433 105.382 106.379 105.286 106.308 105.206C106.162 105.086 105.98 105.026 105.795 105.037H105.019V110.731Z" fill="#404041"/>
<path d="M112.999 103.897H114.264L112.911 111.873H110.856L109.503 103.897H110.894L111.946 110.4L112.999 103.897Z" fill="#404041"/>
<path d="M118.661 111.871L118.415 110.423H116.725L116.488 111.871H115.222L116.624 103.895H118.641L120.045 111.871H118.661ZM118.235 109.342L117.578 105.31L116.92 109.342H118.235Z" fill="#404041"/>
<path d="M123.044 111.871H121.805V103.895H123.533L124.95 108.666V103.897H126.176V111.873H124.761L123.044 106.098V111.871Z" fill="#404041"/>
<path d="M132.29 109.957C132.306 110.23 132.268 110.504 132.179 110.76C132.089 111.016 131.95 111.249 131.77 111.444C131.423 111.79 130.912 111.962 130.235 111.962C129.559 111.962 129.046 111.789 128.7 111.444C128.52 111.249 128.381 111.016 128.291 110.76C128.201 110.504 128.164 110.23 128.18 109.957V105.812C128.163 105.539 128.201 105.265 128.291 105.008C128.38 104.752 128.52 104.519 128.7 104.325C129.046 103.98 129.559 103.806 130.235 103.806C130.91 103.806 131.423 103.98 131.77 104.325C131.95 104.519 132.089 104.752 132.179 105.008C132.269 105.265 132.306 105.539 132.29 105.812V106.586H130.987V105.732C130.998 105.621 130.986 105.509 130.952 105.404C130.919 105.299 130.864 105.202 130.792 105.122C130.64 105.008 130.458 104.946 130.272 104.946C130.086 104.946 129.905 105.008 129.752 105.122C129.681 105.203 129.626 105.299 129.593 105.404C129.56 105.51 129.548 105.621 129.559 105.732V110.036C129.548 110.146 129.559 110.257 129.592 110.361C129.626 110.465 129.68 110.56 129.752 110.639C129.906 110.751 130.087 110.811 130.272 110.811C130.458 110.811 130.639 110.751 130.792 110.639C130.864 110.561 130.919 110.466 130.953 110.361C130.987 110.257 130.998 110.146 130.987 110.036V108.899H132.29V109.957Z" fill="#404041"/>
<path d="M137.526 107.256V108.397H135.634V110.731H138.013V111.871H134.257V103.895H138.013V105.035H135.634V107.254L137.526 107.256Z" fill="#404041"/>
<path d="M142.612 103.897H144.052L145.105 107.531L146.157 103.897H147.473L145.732 109.227V111.871H144.355V109.227L142.612 103.897Z" fill="#404041"/>
<path d="M149.576 104.325C149.936 103.979 150.453 103.806 151.129 103.806C151.804 103.806 152.322 103.979 152.683 104.325C152.868 104.516 153.012 104.748 153.105 105.005C153.197 105.262 153.237 105.537 153.221 105.812V109.957C153.237 110.231 153.197 110.507 153.104 110.763C153.012 111.02 152.868 111.252 152.683 111.444C152.324 111.79 151.805 111.962 151.129 111.962C150.452 111.962 149.934 111.79 149.576 111.444C149.391 111.253 149.247 111.021 149.153 110.764C149.06 110.507 149.02 110.232 149.037 109.957V105.812C149.02 105.537 149.06 105.261 149.153 105.004C149.246 104.748 149.39 104.516 149.576 104.325ZM150.609 110.646C150.761 110.761 150.943 110.822 151.129 110.822C151.315 110.822 151.496 110.761 151.648 110.646C151.72 110.566 151.775 110.47 151.809 110.364C151.843 110.259 151.854 110.147 151.843 110.036V105.732C151.854 105.621 151.843 105.509 151.809 105.404C151.775 105.299 151.72 105.202 151.648 105.122C151.496 105.008 151.315 104.946 151.129 104.946C150.943 104.946 150.761 105.008 150.609 105.122C150.537 105.203 150.483 105.299 150.449 105.404C150.416 105.51 150.405 105.621 150.416 105.732V110.036C150.405 110.147 150.416 110.259 150.449 110.364C150.483 110.47 150.537 110.566 150.609 110.646Z" fill="#404041"/>
<path d="M156.554 110.048C156.542 110.158 156.553 110.268 156.587 110.373C156.62 110.477 156.675 110.572 156.747 110.651C156.9 110.762 157.081 110.822 157.266 110.822C157.452 110.822 157.633 110.762 157.786 110.651C157.858 110.572 157.913 110.477 157.947 110.373C157.981 110.269 157.993 110.158 157.981 110.048V103.897H159.284V109.968C159.3 110.241 159.263 110.515 159.173 110.771C159.083 111.028 158.944 111.261 158.764 111.455C158.418 111.801 157.906 111.973 157.229 111.972C156.554 111.972 156.041 111.8 155.694 111.455C155.514 111.261 155.375 111.028 155.285 110.771C155.196 110.515 155.158 110.241 155.174 109.968V103.897H156.554V110.048Z" fill="#404041"/>
<path d="M164.183 111.723C164.163 111.668 164.148 111.61 164.139 111.552C164.124 111.465 164.115 111.377 164.113 111.289C164.113 111.183 164.113 111.054 164.113 110.89V109.638C164.138 109.355 164.059 109.073 163.893 108.852C163.799 108.766 163.689 108.701 163.571 108.661C163.453 108.62 163.328 108.606 163.205 108.617H162.729V111.864H161.352V103.888H163.431C164.148 103.888 164.67 104.041 164.99 104.343C165.31 104.646 165.472 105.108 165.472 105.723V106.349C165.472 107.167 165.172 107.705 164.571 107.965C164.725 108.012 164.869 108.092 164.993 108.201C165.116 108.31 165.218 108.445 165.29 108.598C165.428 108.934 165.495 109.297 165.485 109.663V110.893C165.485 111.066 165.493 111.239 165.51 111.411C165.529 111.567 165.571 111.719 165.634 111.861H164.233C164.216 111.817 164.198 111.768 164.183 111.723ZM162.729 107.484H163.268C163.484 107.498 163.698 107.435 163.876 107.304C163.957 107.218 164.019 107.115 164.057 107C164.095 106.885 164.108 106.763 164.095 106.642V105.856C164.114 105.632 164.053 105.409 163.926 105.23C163.855 105.16 163.77 105.107 163.679 105.074C163.587 105.041 163.49 105.029 163.393 105.038H162.736L162.729 107.484Z" fill="#404041"/>
<path d="M174.579 109.957C174.596 110.23 174.558 110.504 174.468 110.76C174.379 111.016 174.239 111.249 174.059 111.444C173.713 111.79 173.201 111.962 172.524 111.962C171.849 111.962 171.336 111.789 170.989 111.444C170.81 111.249 170.67 111.016 170.581 110.76C170.491 110.504 170.453 110.23 170.47 109.957V105.812C170.453 105.539 170.491 105.265 170.58 105.008C170.67 104.752 170.809 104.519 170.989 104.325C171.336 103.98 171.849 103.806 172.524 103.806C173.2 103.806 173.713 103.98 174.059 104.325C174.24 104.519 174.379 104.752 174.469 105.008C174.558 105.265 174.596 105.539 174.579 105.812V106.586H173.277V105.732C173.288 105.621 173.276 105.509 173.242 105.404C173.208 105.299 173.153 105.202 173.081 105.122C172.929 105.008 172.748 104.946 172.562 104.946C172.376 104.946 172.194 105.008 172.042 105.122C171.97 105.203 171.916 105.299 171.883 105.404C171.849 105.51 171.838 105.621 171.849 105.732V110.036C171.837 110.146 171.848 110.257 171.882 110.361C171.915 110.465 171.97 110.56 172.042 110.639C172.195 110.751 172.376 110.811 172.562 110.811C172.747 110.811 172.928 110.751 173.081 110.639C173.154 110.561 173.209 110.466 173.242 110.361C173.276 110.257 173.288 110.146 173.277 110.036V108.899H174.579V109.957Z" fill="#404041"/>
<path d="M179.614 111.871L179.377 110.423H177.684L177.447 111.871H176.182L177.586 103.895H179.596L180.998 111.871H179.614ZM179.189 109.342L178.531 105.31L177.873 109.342H179.189Z" fill="#404041"/>
<path d="M185.603 111.723C185.583 111.668 185.568 111.61 185.559 111.552C185.544 111.465 185.535 111.377 185.533 111.289C185.533 111.183 185.533 111.054 185.533 110.89V109.638C185.558 109.355 185.479 109.073 185.313 108.852C185.219 108.766 185.109 108.701 184.991 108.661C184.873 108.62 184.748 108.606 184.625 108.617H184.149V111.864H182.772V103.888H184.859C185.579 103.888 186.098 104.04 186.418 104.343C186.739 104.647 186.899 105.106 186.901 105.723V106.349C186.901 107.167 186.6 107.705 186 107.965C186.154 108.012 186.298 108.092 186.421 108.201C186.545 108.31 186.646 108.445 186.719 108.598C186.857 108.934 186.924 109.297 186.914 109.663V110.893C186.913 111.066 186.921 111.239 186.938 111.411C186.958 111.567 187 111.719 187.063 111.861H185.662C185.636 111.817 185.618 111.768 185.603 111.723ZM184.149 107.484H184.688C184.904 107.498 185.118 107.435 185.296 107.304C185.377 107.218 185.439 107.115 185.477 107C185.515 106.885 185.528 106.763 185.515 106.642V105.856C185.534 105.632 185.473 105.409 185.346 105.23C185.275 105.16 185.19 105.107 185.099 105.074C185.007 105.041 184.91 105.029 184.813 105.038H184.155L184.149 107.484Z" fill="#404041"/>
<path d="M192.203 107.256V108.397H190.313V110.731H192.692V111.871H188.934V103.895H192.692V105.035H190.313V107.254L192.203 107.256Z" fill="#404041"/>
<path d="M197.94 107.256V108.397H196.043V110.731H198.422V111.871H194.67V103.895H198.429V105.035H196.043V107.254L197.94 107.256Z" fill="#404041"/>
<path d="M203.24 111.723C203.221 111.667 203.206 111.61 203.196 111.552C203.181 111.465 203.173 111.377 203.17 111.289C203.17 111.183 203.17 111.054 203.17 110.89V109.638C203.195 109.355 203.116 109.073 202.951 108.852C202.856 108.766 202.747 108.701 202.628 108.661C202.51 108.62 202.386 108.606 202.262 108.617H201.786V111.864H200.409V103.888H202.488C203.207 103.888 203.727 104.04 204.047 104.343C204.367 104.647 204.528 105.106 204.53 105.723V106.349C204.53 107.167 204.229 107.705 203.628 107.965C203.783 108.012 203.926 108.092 204.05 108.201C204.174 108.31 204.275 108.445 204.348 108.598C204.486 108.934 204.552 109.297 204.543 109.663V110.893C204.542 111.066 204.55 111.239 204.567 111.411C204.587 111.567 204.629 111.719 204.692 111.861H203.291C203.28 111.817 203.256 111.768 203.24 111.723ZM201.786 107.484H202.326C202.541 107.498 202.755 107.435 202.933 107.304C203.014 107.218 203.076 107.115 203.114 107C203.152 106.885 203.165 106.763 203.152 106.642V105.856C203.171 105.632 203.111 105.409 202.984 105.23C202.912 105.16 202.828 105.107 202.736 105.074C202.644 105.041 202.547 105.029 202.451 105.038H201.793L201.786 107.484Z" fill="#404041"/>
</g>
<defs>
<linearGradient id="paint0_linear_5_8968" x1="15.2929" y1="-0.000217704" x2="15.2929" y2="84.6906" gradientUnits="userSpaceOnUse">
<stop stop-color="#FFD316"/>
<stop offset="1" stop-color="#F9A31F"/>
</linearGradient>
<linearGradient id="paint1_linear_5_8968" x1="69.6611" y1="42.6054" x2="28.4322" y2="4.06559" gradientUnits="userSpaceOnUse">
<stop stop-color="#FFD316"/>
<stop offset="1" stop-color="#F9A31F"/>
</linearGradient>
<linearGradient id="paint2_linear_5_8968" x1="21.1174" y1="102.877" x2="91.4076" y2="37.1676" gradientUnits="userSpaceOnUse">
<stop stop-color="#FFD316"/>
<stop offset="1" stop-color="#F9A31F"/>
</linearGradient>
<linearGradient id="paint3_linear_5_8968" x1="25.1875" y1="50.5837" x2="62.6593" y2="50.5837" gradientUnits="userSpaceOnUse">
<stop stop-color="#FFD316"/>
<stop offset="1" stop-color="#F9A31F"/>
</linearGradient>
<clipPath id="clip0_5_8968">
<rect width="224" height="112" fill="white"/>
</clipPath>
</defs>
</svg>
