<svg width="32" height="32" viewBox="0 0 32 32" fill="none" xmlns="http://www.w3.org/2000/svg">
<path fill-rule="evenodd" clip-rule="evenodd" d="M16.0001 29.3333C23.3639 29.3333 29.3334 23.3638 29.3334 16C29.3334 8.63619 23.3639 2.66666 16.0001 2.66666C8.63628 2.66666 2.66675 8.63619 2.66675 16C2.66675 23.3638 8.63628 29.3333 16.0001 29.3333ZM17.0001 9.33332C17.0001 8.78104 16.5524 8.33332 16.0001 8.33332C15.4478 8.33332 15.0001 8.78104 15.0001 9.33332V16C15.0001 16.4304 15.2755 16.8126 15.6839 16.9487L19.6839 18.282C20.2078 18.4567 20.7741 18.1735 20.9488 17.6496C21.1234 17.1256 20.8403 16.5593 20.3163 16.3846L17.0001 15.2792V9.33332Z" fill="#607FE9"/>
</svg>
