<svg width="72" height="72" viewBox="0 0 72 72" fill="none" xmlns="http://www.w3.org/2000/svg">
  <g clip-path="url(#clip0_4164_353)">
    <path d="M14.6245 63L8.98828 57.375H14.6245V63Z" fill="#AD2337" />
    <path d="M57.375 63L63.0112 57.375H57.375V63Z" fill="#AD2337" />
    <path d="M57.3755 14.625H48.3867V5.63623L57.3755 14.625Z" fill="#B2B2B2" />
    <path
      d="M48.375 5.625H16.4138C15.9393 5.625 15.4844 5.81346 15.1489 6.14891C14.8135 6.48437 14.625 6.93934 14.625 7.41375V64.7887C14.625 65.2642 14.8131 65.7203 15.1482 66.0576C15.4834 66.3948 15.9383 66.5858 16.4138 66.5887H55.5863C55.8265 66.5874 56.064 66.5379 56.2848 66.4433C56.5057 66.3487 56.7053 66.2108 56.872 66.0378C57.0387 65.8648 57.1691 65.6602 57.2555 65.436C57.3419 65.2118 57.3825 64.9726 57.375 64.7325V14.625H48.375V5.625Z"
      fill="#E9E9E0" />
    <path
      d="M10.125 37.125H61.875C62.1734 37.125 62.4595 37.2435 62.6705 37.4545C62.8815 37.6655 63 37.9516 63 38.25V57.375H9V38.25C9 37.9516 9.11853 37.6655 9.32951 37.4545C9.54048 37.2435 9.82663 37.125 10.125 37.125Z"
      fill="#F15668" />
    <path
      d="M55.0966 47.3863C55.0966 48.3465 54.9119 49.1604 54.5426 49.828C54.1733 50.4956 53.6733 51.0028 53.0426 51.3493C52.4148 51.6959 51.7102 51.8692 50.929 51.8692C50.1449 51.8692 49.4389 51.6945 48.8111 51.3451C48.1832 50.9956 47.6847 50.4885 47.3153 49.8238C46.9489 49.1562 46.7656 48.3437 46.7656 47.3863C46.7656 46.426 46.9489 45.6121 47.3153 44.9445C47.6847 44.2769 48.1832 43.7698 48.8111 43.4232C49.4389 43.0766 50.1449 42.9033 50.929 42.9033C51.7102 42.9033 52.4148 43.0766 53.0426 43.4232C53.6733 43.7698 54.1733 44.2769 54.5426 44.9445C54.9119 45.6121 55.0966 46.426 55.0966 47.3863ZM52.9403 47.3863C52.9403 46.8181 52.8594 46.338 52.6974 45.9459C52.5384 45.5539 52.3082 45.257 52.0071 45.0553C51.7088 44.8536 51.3494 44.7528 50.929 44.7528C50.5114 44.7528 50.152 44.8536 49.8509 45.0553C49.5497 45.257 49.3182 45.5539 49.1562 45.9459C48.9972 46.338 48.9176 46.8181 48.9176 47.3863C48.9176 47.9545 48.9972 48.4346 49.1562 48.8266C49.3182 49.2187 49.5497 49.5155 49.8509 49.7172C50.152 49.9189 50.5114 50.0198 50.929 50.0198C51.3494 50.0198 51.7088 49.9189 52.0071 49.7172C52.3082 49.5155 52.5384 49.2187 52.6974 48.8266C52.8594 48.4346 52.9403 47.9545 52.9403 47.3863Z"
      fill="white" />
    <path
      d="M39.4531 51.7497V43.0225H45.5384V44.7355H41.5625V46.5253H45.2273V48.2426H41.5625V50.0367H45.5384V51.7497H39.4531Z"
      fill="white" />
    <path
      d="M33.9134 51.7497H30.6875V43.0225H33.9091C34.7983 43.0225 35.5639 43.1972 36.206 43.5466C36.8509 43.8932 37.348 44.3932 37.6974 45.0466C38.0469 45.6972 38.2216 46.4756 38.2216 47.3818C38.2216 48.2909 38.0469 49.0722 37.6974 49.7256C37.3509 50.379 36.8551 50.8804 36.2102 51.2298C35.5653 51.5764 34.7997 51.7497 33.9134 51.7497ZM32.7969 49.9514H33.8324C34.321 49.9514 34.7344 49.8691 35.0724 49.7043C35.4134 49.5367 35.6705 49.2654 35.8438 48.8904C36.0199 48.5125 36.108 48.0097 36.108 47.3818C36.108 46.754 36.0199 46.254 35.8438 45.8818C35.6676 45.5068 35.4077 45.2369 35.0639 45.0722C34.723 44.9046 34.3026 44.8208 33.8026 44.8208H32.7969V49.9514Z"
      fill="white" />
    <path d="M29.3633 43.0225V51.7497H27.2539V43.0225H29.3633Z" fill="white" />
    <path
      d="M19.978 43.0225L21.9297 49.4145H22.0021L23.9538 43.0225H26.3146L23.37 51.7497H20.5618L17.6172 43.0225H19.978Z"
      fill="white" />
    <path d="M29.1719 16.2451V22.9726V29.6889L42.8294 22.9726L29.1719 16.2451Z" stroke="#F15668"
      stroke-linecap="round" stroke-linejoin="round" />
  </g>
  <defs>
    <clipPath id="clip0_4164_353">
      <rect width="72" height="72" fill="white" />
    </clipPath>
  </defs>
</svg>
  