<svg width="32" height="32" viewBox="0 0 32 32" fill="none" xmlns="http://www.w3.org/2000/svg">
<path fillRule="evenodd" clipRule="evenodd" d="M21.8559 2.69528L21.9446 2.71904C23.4104 3.1118 24.5721 3.42305 25.4857 3.7531C26.4203 4.09071 27.1824 4.47691 27.8103 5.06495C28.7245 5.92123 29.3643 7.02938 29.6487 8.24927C29.8441 9.08703 29.7975 9.94014 29.6226 10.9183C29.4516 11.8746 29.1403 13.0363 28.7475 14.5022L28.0336 17.1666C27.6408 18.6324 27.3296 19.794 26.9995 20.7076C26.6619 21.6422 26.2757 22.4043 25.6877 23.0322C24.8586 23.9173 23.7935 24.5452 22.6194 24.8424C22.2764 25.6288 21.7755 26.3408 21.1436 26.9327C20.5158 27.5207 19.7536 27.9069 18.8191 28.2445C17.9054 28.5746 16.7438 28.8858 15.278 29.2786L15.1894 29.3023C13.7235 29.6951 12.5619 30.0064 11.6056 30.1774C10.6274 30.3523 9.77428 30.3989 8.93653 30.2036C7.71664 29.9191 6.60848 29.2793 5.75221 28.3651C5.16416 27.7372 4.77796 26.9751 4.44035 26.0405C4.1103 25.1269 3.79905 23.9652 3.40629 22.4994L2.69236 19.835C2.29958 18.3691 1.98832 17.2075 1.81732 16.2513C1.64241 15.2731 1.59581 14.42 1.79115 13.5822C2.07559 12.3623 2.71538 11.2542 3.62962 10.3979C4.25746 9.80984 5.01958 9.42364 5.95416 9.08603C6.86783 8.75598 8.02944 8.44473 9.49527 8.05197L9.5396 8.0401C9.89222 7.94561 10.2259 7.85637 10.5417 7.77291C11.0639 5.9074 11.5234 4.58867 12.4189 3.63255C13.2752 2.71831 14.3833 2.07851 15.6032 1.79408C16.4409 1.59874 17.2941 1.64534 18.2722 1.82025C19.2285 1.99125 20.3901 2.30251 21.8559 2.69528ZM9.93742 10.0041C8.48025 10.3946 7.43613 10.6772 6.63367 10.9671C5.8211 11.2606 5.344 11.5324 4.9968 11.8576C4.37127 12.4435 3.93352 13.2017 3.7389 14.0364C3.63088 14.4996 3.63402 15.0487 3.78609 15.8992C3.94037 16.7619 4.2288 17.8416 4.63609 19.3617L5.32627 21.9375C5.73356 23.4575 6.02362 24.5367 6.32138 25.361C6.61491 26.1736 6.88674 26.6507 7.21193 26.9979C7.79781 27.6234 8.55602 28.0612 9.39068 28.2558C9.85396 28.3638 10.4031 28.3607 11.2535 28.2086C12.1163 28.0543 13.196 27.7659 14.716 27.3586C16.236 26.9513 17.3153 26.6613 18.1395 26.3635C18.9521 26.07 19.4292 25.7981 19.7764 25.4729C19.9599 25.3011 20.1271 25.1146 20.2769 24.9156C20.0381 24.882 19.7925 24.839 19.5383 24.7885C18.6426 24.6103 17.5666 24.322 16.2385 23.9662L16.1619 23.9457C14.6961 23.5529 13.5345 23.2417 12.6208 22.9116C11.6862 22.574 10.9241 22.1878 10.2963 21.5997C9.38204 20.7435 8.74225 19.6353 8.45781 18.4154C8.26248 17.5777 8.30907 16.7246 8.48399 15.7464C8.65499 14.7901 8.96625 13.6285 9.35903 12.1627L9.93742 10.0041ZM17.9202 3.78902C17.0697 3.63695 16.5206 3.63381 16.0573 3.74183C15.2227 3.93645 14.4645 4.3742 13.8786 4.99973C13.2971 5.62057 12.9393 6.57969 12.317 8.85796C12.2159 9.22823 12.1089 9.62729 11.9929 10.0602L11.3028 12.636C10.8955 14.156 10.607 15.2357 10.4528 16.0984C10.3007 16.9489 10.2975 17.498 10.4056 17.9613C10.6002 18.7959 11.0379 19.5541 11.6635 20.14C12.0107 20.4652 12.4878 20.737 13.3003 21.0306C14.1246 21.3283 15.2039 21.6184 16.7239 22.0257C18.0911 22.392 19.1044 22.663 19.9284 22.8269C20.7487 22.99 21.3054 23.03 21.7616 22.9737C21.8609 22.9615 21.9563 22.9445 22.0492 22.9229C22.8839 22.7282 23.6421 22.2905 24.2279 21.665C24.5531 21.3178 24.825 20.8407 25.1185 20.0281C25.4163 19.2038 25.7063 18.1245 26.1136 16.6045L26.8038 14.0287C27.2111 12.5087 27.4995 11.429 27.6538 10.5663C27.8059 9.7158 27.809 9.16671 27.701 8.70343C27.5064 7.86876 27.0686 7.11055 26.4431 6.52468C26.0959 6.19949 25.6188 5.92766 24.8062 5.63413C23.9819 5.33636 22.9027 5.0463 21.3826 4.63901C19.8626 4.23173 18.7829 3.9433 17.9202 3.78902ZM14.7339 13.0748C14.8769 12.5414 15.4252 12.2248 15.9587 12.3677L22.3982 14.0932C22.9317 14.2361 23.2482 14.7845 23.1053 15.3179C22.9623 15.8514 22.414 16.168 21.8805 16.025L15.441 14.2996C14.9076 14.1566 14.591 13.6083 14.7339 13.0748ZM13.6981 16.9384C13.8411 16.405 14.3894 16.0884 14.9229 16.2313L18.7866 17.2666C19.32 17.4095 19.6366 17.9579 19.4937 18.4914C19.3507 19.0248 18.8024 19.3414 18.2689 19.1985L14.4052 18.1632C13.8718 18.0202 13.5552 17.4719 13.6981 16.9384Z" fill="white"/>
</svg>
