<svg width="12" height="12" viewBox="0 0 12 12" fill="none" xmlns="http://www.w3.org/2000/svg">
<path d="M7.40992 6.00015L10.9999 2.44015C11.1909 2.24655 11.2971 1.98501 11.2952 1.71308C11.2933 1.44115 11.1835 1.18111 10.9899 0.990153C10.7963 0.799198 10.5348 0.692973 10.2628 0.694849C9.99092 0.696724 9.73088 0.806546 9.53992 1.00015L5.99992 4.59015L2.45992 1.07015C2.27256 0.883903 2.0191 0.779361 1.75492 0.779361C1.49073 0.779361 1.23728 0.883903 1.04992 1.07015C0.956191 1.16312 0.881796 1.27372 0.831028 1.39558C0.780259 1.51744 0.754121 1.64814 0.754121 1.78015C0.754121 1.91217 0.780259 2.04287 0.831028 2.16473C0.881796 2.28659 0.956191 2.39719 1.04992 2.49015L4.58992 6.00015L0.999919 9.56015C0.808963 9.75376 0.702739 10.0153 0.704614 10.2872C0.70649 10.5592 0.816311 10.8192 1.00992 11.0102C1.20353 11.2011 1.46506 11.3073 1.73699 11.3055C2.00892 11.3036 2.26896 11.1938 2.45992 11.0002L5.99992 7.41015L9.53992 10.9302C9.72728 11.1164 9.98073 11.2209 10.2449 11.2209C10.5091 11.2209 10.7626 11.1164 10.9499 10.9302C11.0436 10.8372 11.118 10.7266 11.1688 10.6047C11.2196 10.4829 11.2457 10.3522 11.2457 10.2202C11.2457 10.0881 11.2196 9.95744 11.1688 9.83558C11.118 9.71372 11.0436 9.60312 10.9499 9.51015L7.40992 6.00015Z" fill="white"/>
</svg>
