<svg width="16" height="16" viewBox="0 0 16 16" fill="none" xmlns="http://www.w3.org/2000/svg">
<g clipPath="url(#clip0_22946_3518)">
<path d="M14.3618 4.72264C14.3538 4.72311 14.3459 4.72383 14.3378 4.72383C14.3282 4.72383 14.3186 4.72348 14.3089 4.72286L11.9932 4.5647L11.9789 4.57901C12.8715 5.59199 13.4139 6.92055 13.4139 8.37358C13.4139 11.5421 10.8362 14.1198 7.66765 14.1198C4.49914 14.1198 1.92145 11.5421 1.92145 8.37358C1.92145 5.20508 4.49917 2.62732 7.66771 2.62732C9.07878 2.62732 10.3724 3.13889 11.3737 3.98586L11.394 3.96548L11.2359 1.6497C11.2355 1.64479 11.2358 1.63985 11.2357 1.63495C10.1704 1.06863 8.956 0.747101 7.66771 0.747101C3.46249 0.747101 0.0412598 4.16833 0.0412598 8.37355C0.0412598 12.5788 3.46249 16 7.66771 16C11.8729 16 15.2942 12.5788 15.2942 8.37355C15.2942 7.0518 14.956 5.80764 14.3618 4.72264Z" fill="white"/>
<path d="M11.3788 5.17917L9.855 6.7029C10.2101 7.16662 10.4217 7.74574 10.4217 8.37356C10.4217 9.89212 9.18625 11.1276 7.66768 11.1276C6.14912 11.1276 4.91368 9.89212 4.91368 8.37356C4.91368 6.85499 6.14912 5.61955 7.66768 5.61955C8.25318 5.61955 8.79619 5.80377 9.24294 6.11655L10.7724 4.58702C9.92669 3.8923 8.84503 3.47467 7.66765 3.47467C4.96646 3.4747 2.7688 5.67236 2.7688 8.37362C2.7688 11.0749 4.96643 13.2725 7.66768 13.2725C10.3689 13.2725 12.5665 11.0748 12.5665 8.37359C12.5665 7.15418 12.1186 6.03749 11.3788 5.17917Z" fill="white"/>
<path d="M9.24871 7.30914L7.90883 8.64902C7.82608 8.73177 7.71768 8.77311 7.60924 8.77311C7.5008 8.77311 7.3924 8.73177 7.30965 8.64902C7.14421 8.48358 7.14421 8.2153 7.30965 8.04983L8.63049 6.72898C8.34768 6.56276 8.01871 6.46698 7.66765 6.46698C6.61627 6.46698 5.76099 7.32229 5.76099 8.37358C5.76099 9.42486 6.6163 10.2802 7.66758 10.2802C8.71887 10.2802 9.57418 9.42486 9.57418 8.37358C9.57424 7.97967 9.45415 7.61333 9.24871 7.30914Z" fill="white"/>
<path d="M14.8266 1.73138L12.7883 3.76964L14.1745 3.86433L15.9587 2.0801L14.8266 1.73138Z" fill="white"/>
<path d="M13.8787 0L12.0945 1.78422L12.1892 3.17044L14.2275 1.13216L13.8787 0Z" fill="white"/>
</g>
<defs>
<clipPath id="clip0_22946_3518">
<rect width="16" height="16" fill="white"/>
</clipPath>
</defs>
</svg>
