<svg width="50" height="50" viewBox="0 0 50 50" fill="none" xmlns="http://www.w3.org/2000/svg">
<rect x="0.5" y="0.5" width="49" height="49" stroke="#DCDDDD"/>
<path fillRule="evenodd" clipRule="evenodd" d="M39.4 25.3411C39.4 24.2775 39.3045 23.2548 39.1273 22.2729H25V28.0752H33.0727C32.725 29.9502 31.6682 31.5389 30.0795 32.6025V36.3661H34.9273C37.7636 33.7548 39.4 29.9093 39.4 25.3411Z" fill="#4285F4"/>
<path fillRule="evenodd" clipRule="evenodd" d="M25 40.0001C29.05 40.0001 32.4455 38.6569 34.9273 36.366L30.0796 32.6024C28.7364 33.5024 27.0182 34.0342 25 34.0342C21.0932 34.0342 17.7864 31.3956 16.6068 27.8501H11.5955V31.7365C14.0636 36.6387 19.1364 40.0001 25 40.0001Z" fill="#34A853"/>
<path fillRule="evenodd" clipRule="evenodd" d="M16.6068 27.85C16.3068 26.95 16.1364 25.9887 16.1364 25C16.1364 24.0114 16.3068 23.05 16.6068 22.15V18.2637H11.5955C10.5795 20.2887 10 22.5796 10 25C10 27.4205 10.5795 29.7114 11.5955 31.7364L16.6068 27.85Z" fill="#FBBC05"/>
<path fillRule="evenodd" clipRule="evenodd" d="M25 15.9659C27.2023 15.9659 29.1796 16.7227 30.7341 18.2091L35.0364 13.9068C32.4386 11.4864 29.0432 10 25 10C19.1364 10 14.0636 13.3614 11.5955 18.2636L16.6068 22.15C17.7864 18.6045 21.0932 15.9659 25 15.9659Z" fill="#EA4335"/>
</svg>
