<svg width="16" height="16" viewBox="0 0 16 16" fill="none" xmlns="http://www.w3.org/2000/svg">
<path d="M14.7731 13.5947C14.7731 13.5947 12.9973 10.5426 12.6788 9.9952C13.0412 9.88464 13.4273 9.78701 13.5877 9.51002C13.855 9.04849 13.3791 8.29138 13.5041 7.79669C13.6328 7.28756 14.3927 6.847 14.3927 6.32948C14.3927 5.82527 13.6071 5.23623 13.4783 4.73008C13.3525 4.23548 13.8269 3.47755 13.5587 3.01658C13.2905 2.55557 12.3971 2.59345 12.0294 2.23958C11.651 1.87543 11.6522 0.984456 11.1958 0.740417C10.7376 0.495471 9.99282 0.990509 9.48403 0.873246C8.98104 0.757324 8.53166 0 8.00627 0C7.47309 0 6.62506 0.859064 6.49205 0.889979C5.98352 1.00819 5.23783 0.514366 4.78007 0.76035C4.32411 1.00521 4.32693 1.89627 3.94924 2.26103C3.5821 2.61554 2.6887 2.57931 2.42131 3.04084C2.15397 3.50228 2.62985 4.25922 2.50494 4.75417C2.37968 5.25037 1.59334 5.75315 1.59334 6.32701C1.59334 6.84458 2.35512 7.28375 2.48462 7.79263C2.61048 8.28723 2.13603 9.04508 2.40424 9.50622C2.55025 9.75722 2.88155 9.86025 3.21241 9.95931C3.25102 9.97086 3.32405 10.0141 3.27458 10.0861C3.04823 10.4768 1.22637 13.6211 1.22637 13.6211C1.08144 13.8712 1.19913 14.0856 1.48784 14.0977L2.901 14.1567C3.18971 14.1688 3.55187 14.3786 3.70598 14.623L4.46006 15.8196C4.61416 16.064 4.85867 16.0595 5.00357 15.8094C5.00357 15.8094 7.11348 12.1667 7.11434 12.1657C7.15667 12.1162 7.19922 12.1264 7.21959 12.1437C7.45044 12.3402 7.77226 12.5363 8.04086 12.5363C8.30427 12.5363 8.54818 12.3517 8.78945 12.1459C8.80908 12.1292 8.85686 12.0949 8.89179 12.166C8.89236 12.1672 10.9999 15.7899 10.9999 15.7899C11.1452 16.0396 11.3898 16.0439 11.5434 15.7992L12.2954 14.6011C12.449 14.3565 12.8108 14.1459 13.0995 14.1333L14.5125 14.0718C14.8011 14.0591 14.9184 13.8444 14.7731 13.5947ZM10.3417 10.3181C8.77924 11.2271 6.90377 11.1297 5.47128 10.2261C3.37226 8.88159 2.68161 6.10031 3.94344 3.92243C5.21967 1.71943 8.02512 0.942082 10.248 2.15272C10.2596 2.15907 10.2712 2.16565 10.2828 2.17213C10.2993 2.18126 10.3157 2.19051 10.3321 2.19985C11.0178 2.59522 11.6125 3.16904 12.0383 3.90094C13.3397 6.13793 12.5787 9.01667 10.3417 10.3181Z" fill="white"/>
<path d="M9.98431 2.8582C9.97782 2.85443 9.97125 2.85093 9.96477 2.84721C8.77735 2.15998 7.26391 2.10974 5.99551 2.84769C4.11325 3.94275 3.47275 6.36493 4.56781 8.24715C4.90196 8.82153 5.35986 9.28003 5.88815 9.60908C5.93307 9.63753 5.97852 9.6655 6.02495 9.6924C7.90925 10.784 10.3301 10.1392 11.4217 8.25497C12.5133 6.37068 11.8686 3.94984 9.98431 2.8582ZM10.4557 5.93855L9.79592 6.58164C9.59157 6.7808 9.46385 7.17392 9.51214 7.45519L9.66789 8.36324C9.71614 8.64451 9.54898 8.76597 9.29638 8.63318L8.48086 8.20443C8.22826 8.07164 7.81494 8.07164 7.56234 8.20443L6.74687 8.63318C6.49427 8.76597 6.32706 8.64451 6.37532 8.36324L6.53106 7.45519C6.57931 7.17392 6.45159 6.7808 6.24724 6.58164L5.58751 5.93855C5.38312 5.7394 5.44703 5.54283 5.72942 5.50176L6.64115 5.36928C6.92354 5.32824 7.25794 5.08528 7.38424 4.8294L7.79198 4.00324C7.91828 3.74735 8.12496 3.74735 8.25122 4.00324L8.659 4.8294C8.7853 5.08528 9.11967 5.32824 9.4021 5.36928L10.3138 5.50176C10.5962 5.54283 10.66 5.7394 10.4557 5.93855Z" fill="white"/>
</svg>
