<svg width="16" height="16" viewBox="0 0 16 16" fill="none" xmlns="http://www.w3.org/2000/svg">
<path d="M11.3125 3.41095V2.20313C11.3125 2.09845 11.1922 2.04063 11.111 2.1047L4.06721 7.60626C4.00736 7.6528 3.95894 7.7124 3.92563 7.7805C3.89232 7.8486 3.875 7.92341 3.875 7.99923C3.875 8.07504 3.89232 8.14985 3.92563 8.21796C3.95894 8.28606 4.00736 8.34565 4.06721 8.3922L11.111 13.8938C11.1938 13.9578 11.3125 13.9 11.3125 13.7953V12.5875C11.3125 12.5109 11.2766 12.4375 11.2172 12.3906L5.59221 8.00001L11.2172 3.60782C11.2766 3.56095 11.3125 3.48751 11.3125 3.41095Z" fill="#404041"/>
</svg>
