<svg width="12" height="12" viewBox="0 0 12 12" fill="none" xmlns="http://www.w3.org/2000/svg">
<path d="M7.40992 6.00003L10.9999 2.44003C11.1909 2.24642 11.2971 1.98489 11.2952 1.71296C11.2933 1.44103 11.1835 1.18099 10.9899 0.990031C10.7963 0.799075 10.5348 0.692851 10.2628 0.694727C9.99092 0.696602 9.73088 0.806424 9.53992 1.00003L5.99992 4.59003L2.45992 1.07003C2.27256 0.883781 2.0191 0.779239 1.75492 0.779239C1.49073 0.779239 1.23728 0.883781 1.04992 1.07003C0.956191 1.16299 0.881796 1.2736 0.831028 1.39546C0.780259 1.51731 0.754121 1.64802 0.754121 1.78003C0.754121 1.91204 0.780259 2.04275 0.831028 2.16461C0.881796 2.28647 0.956191 2.39707 1.04992 2.49003L4.58992 6.00003L0.999919 9.56003C0.808963 9.75364 0.702739 10.0152 0.704614 10.2871C0.70649 10.559 0.816311 10.8191 1.00992 11.01C1.20353 11.201 1.46506 11.3072 1.73699 11.3053C2.00892 11.3035 2.26896 11.1936 2.45992 11L5.99992 7.41003L9.53992 10.93C9.72728 11.1163 9.98073 11.2208 10.2449 11.2208C10.5091 11.2208 10.7626 11.1163 10.9499 10.93C11.0436 10.8371 11.118 10.7265 11.1688 10.6046C11.2196 10.4827 11.2457 10.352 11.2457 10.22C11.2457 10.088 11.2196 9.95731 11.1688 9.83545C11.118 9.7136 11.0436 9.60299 10.9499 9.51003L7.40992 6.00003Z" fill="#374151"/>
</svg>
