<svg width="21" height="20" viewBox="0 0 21 20" fill="none" xmlns="http://www.w3.org/2000/svg">
<g clip-path="url(#clip0_1050_7093)">
<path d="M10.9038 18.4793L10.3356 18.6312C9.89969 18.7471 9.43969 18.5793 9.18376 18.2112L6.75188 14.7431L10.84 15.179L11.6159 17.0271C11.8638 17.6271 11.5319 18.3112 10.9038 18.4793ZM3.01188 7.52309L1.69188 7.87902C0.835943 8.1109 0.323755 8.9909 0.555943 9.84715L1.39188 12.9671C1.62001 13.8231 2.50001 14.3312 3.36001 14.099L4.68001 13.7471L3.01188 7.52309ZM16.1663 13.8081L12.9303 1.72965C12.8331 1.36621 12.4016 1.21402 12.0978 1.43527L4.17032 7.21465L5.83751 13.4365L15.5925 14.4784C15.9663 14.5184 16.2638 14.1706 16.1663 13.8081ZM16.6572 3.80621C16.5659 3.80621 16.4744 3.78309 16.39 3.73434C16.1338 3.58652 16.0463 3.25902 16.1941 3.00309L16.9681 1.66277C17.1156 1.40621 17.4441 1.31871 17.6994 1.46684C17.9556 1.61465 18.0431 1.94215 17.8953 2.19809L17.1213 3.5384C17.0219 3.71027 16.8419 3.80621 16.6572 3.80621ZM17.4216 7.53402C17.185 7.53402 16.9688 7.37621 16.9047 7.13715C16.8284 6.85152 16.9978 6.55809 17.2834 6.48121L18.7784 6.0809C19.0656 6.00465 19.3578 6.1734 19.4347 6.45965C19.5109 6.74527 19.3416 7.03871 19.0559 7.11559L17.5609 7.5159C17.5138 7.5284 17.4675 7.53402 17.4216 7.53402ZM19.9641 11.9187C19.8728 11.9187 19.7813 11.8956 19.6969 11.8468L18.3566 11.0728C18.1003 10.925 18.0128 10.5975 18.1606 10.3415C18.3084 10.085 18.6366 9.99746 18.8919 10.1456L20.2322 10.9196C20.4884 11.0675 20.5759 11.395 20.4281 11.6509C20.3291 11.8228 20.1488 11.9187 19.9641 11.9187Z" fill="#FFB800"/>
</g>
<defs>
<clipPath id="clip0_1050_7093">
<rect width="20" height="20" fill="white" transform="translate(0.5)"/>
</clipPath>
</defs>
</svg>
