<svg width="32" height="32" viewBox="0 0 32 32" fill="none" xmlns="http://www.w3.org/2000/svg">
<path d="M15 6.04382C12.9794 4.75039 10.5766 4 8 4C6.48237 4 5.02341 4.26047 3.66675 4.73998C3.26716 4.88122 3 5.25901 3 5.68282V24.6828C3 25.0074 3.15757 25.3119 3.42261 25.4993C3.68765 25.6867 4.02718 25.7338 4.33325 25.6257C5.47882 25.2208 6.71255 25 8 25C10.66 25 13.0977 25.943 15 27.5143V6.04382Z" fill="#37C78C"/>
<path d="M17 27.5143C18.9023 25.943 21.34 25 24 25C25.2875 25 26.5212 25.2208 27.6668 25.6257C27.9728 25.7338 28.3123 25.6867 28.5774 25.4993C28.8424 25.3119 29 25.0074 29 24.6828V5.68282C29 5.25901 28.7328 4.88122 28.3332 4.73998C26.9766 4.26047 25.5176 4 24 4C21.4234 4 19.0206 4.75039 17 6.04382V27.5143Z" fill="#37C78C"/>
</svg>
