<svg width="72" height="72" viewBox="0 0 72 72" fill="none" xmlns="http://www.w3.org/2000/svg">
  <g clipPath="url(#clip0_4164_363)">
    <path d="M14.6245 63L8.98828 57.375H14.6245V63Z" fill="#1D80B2" />
    <path d="M57.375 63L63.0112 57.375H57.375V63Z" fill="#1D80B2" />
    <path d="M57.3755 14.625H48.3867V5.63623L57.3755 14.625Z" fill="#B2B2B2" />
    <path
      d="M48.375 5.625H16.4138C15.9393 5.625 15.4844 5.81346 15.1489 6.14891C14.8135 6.48437 14.625 6.93934 14.625 7.41375V64.7887C14.625 65.2642 14.8131 65.7203 15.1482 66.0576C15.4834 66.3948 15.9383 66.5858 16.4138 66.5887H55.5863C55.8265 66.5874 56.064 66.5379 56.2848 66.4433C56.5057 66.3487 56.7053 66.2108 56.872 66.0378C57.0387 65.8648 57.1691 65.6602 57.2555 65.436C57.3419 65.2118 57.3825 64.9726 57.375 64.7325V14.625H48.375V5.625Z"
      fill="#E9E9E0" />
    <path
      d="M10.125 37.125H61.875C62.1734 37.125 62.4595 37.2435 62.6705 37.4545C62.8815 37.6655 63 37.9516 63 38.25V57.375H9V38.25C9 37.9516 9.11853 37.6655 9.32951 37.4545C9.54048 37.2435 9.82663 37.125 10.125 37.125Z"
      fill="#2598DE" />
    <path d="M20.2383 14.625H41.7258" stroke="#2598DE" strokeLinecap="round"
      strokeLinejoin="round" />
    <path d="M39.2383 22.061H52.2433" stroke="#2598DE" strokeLinecap="round"
      strokeLinejoin="round" />
    <path d="M20.2383 22.061H35.1558" stroke="#2598DE" strokeLinecap="round"
      strokeLinejoin="round" />
    <path d="M48.0469 29.4976H52.2431" stroke="#2598DE" strokeLinecap="round"
      strokeLinejoin="round" />
    <path d="M20.2383 29.4976H42.682" stroke="#2598DE" strokeLinecap="round"
      strokeLinejoin="round" />
    <path
      d="M49.1367 46.1846H47.006C46.9776 45.9658 46.9194 45.7684 46.8313 45.5922C46.7433 45.4161 46.6268 45.2655 46.4819 45.1405C46.337 45.0155 46.1651 44.9204 45.9663 44.855C45.7702 44.7868 45.5529 44.7528 45.3143 44.7528C44.891 44.7528 44.5259 44.8564 44.2191 45.0638C43.9151 45.2712 43.6808 45.5709 43.516 45.963C43.354 46.355 43.2731 46.8295 43.2731 47.3863C43.2731 47.9658 43.3555 48.4516 43.5202 48.8437C43.6879 49.2329 43.9222 49.5269 44.2234 49.7258C44.5273 49.9218 44.8867 50.0198 45.3015 50.0198C45.5344 50.0198 45.7461 49.99 45.9364 49.9303C46.1296 49.8707 46.2987 49.784 46.4435 49.6704C46.5913 49.5539 46.712 49.4133 46.8058 49.2485C46.9023 49.0809 46.9691 48.892 47.006 48.6817L49.1367 48.6945C49.0998 49.0809 48.9876 49.4616 48.8001 49.8366C48.6154 50.2116 48.3612 50.5539 48.0373 50.8635C47.7134 51.1704 47.3185 51.4147 46.8526 51.5965C46.3896 51.7783 45.8583 51.8692 45.2589 51.8692C44.4691 51.8692 43.7617 51.6959 43.1367 51.3493C42.5146 50.9999 42.0231 50.4914 41.6623 49.8238C41.3015 49.1562 41.1211 48.3437 41.1211 47.3863C41.1211 46.426 41.3043 45.6121 41.6708 44.9445C42.0373 44.2769 42.533 43.7698 43.158 43.4232C43.783 43.0766 44.4833 42.9033 45.2589 42.9033C45.7873 42.9033 46.2759 42.9772 46.7248 43.1249C47.1737 43.2698 47.5685 43.4829 47.9094 43.7641C48.2504 44.0425 48.5273 44.3849 48.7404 44.7911C48.9535 45.1974 49.0856 45.6618 49.1367 46.1846Z"
      fill="white" />
    <path
      d="M39.9833 47.3863C39.9833 48.3465 39.7987 49.1604 39.4293 49.828C39.06 50.4956 38.56 51.0028 37.9293 51.3493C37.3015 51.6959 36.5969 51.8692 35.8157 51.8692C35.0316 51.8692 34.3256 51.6945 33.6978 51.3451C33.07 50.9956 32.5714 50.4885 32.2021 49.8238C31.8356 49.1562 31.6523 48.3437 31.6523 47.3863C31.6523 46.426 31.8356 45.6121 32.2021 44.9445C32.5714 44.2769 33.07 43.7698 33.6978 43.4232C34.3256 43.0766 35.0316 42.9033 35.8157 42.9033C36.5969 42.9033 37.3015 43.0766 37.9293 43.4232C38.56 43.7698 39.06 44.2769 39.4293 44.9445C39.7987 45.6121 39.9833 46.426 39.9833 47.3863ZM37.8271 47.3863C37.8271 46.8181 37.7461 46.338 37.5842 45.9459C37.4251 45.5539 37.195 45.257 36.8938 45.0553C36.5955 44.8536 36.2362 44.7528 35.8157 44.7528C35.3981 44.7528 35.0387 44.8536 34.7376 45.0553C34.4364 45.257 34.2049 45.5539 34.043 45.9459C33.8839 46.338 33.8043 46.8181 33.8043 47.3863C33.8043 47.9545 33.8839 48.4346 34.043 48.8266C34.2049 49.2187 34.4364 49.5155 34.7376 49.7172C35.0387 49.9189 35.3981 50.0198 35.8157 50.0198C36.2362 50.0198 36.5955 49.9189 36.8938 49.7172C37.195 49.5155 37.4251 49.2187 37.5842 48.8266C37.7461 48.4346 37.8271 47.9545 37.8271 47.3863Z"
      fill="white" />
    <path
      d="M26.2063 51.7497H22.9805V43.0225H26.2021C27.0913 43.0225 27.8569 43.1972 28.4989 43.5466C29.1438 43.8932 29.641 44.3932 29.9904 45.0466C30.3398 45.6972 30.5146 46.4756 30.5146 47.3818C30.5146 48.2909 30.3398 49.0722 29.9904 49.7256C29.6438 50.379 29.1481 50.8804 28.5032 51.2298C27.8583 51.5764 27.0927 51.7497 26.2063 51.7497ZM25.0898 49.9514H26.1254C26.614 49.9514 27.0273 49.8691 27.3654 49.7043C27.7063 49.5367 27.9634 49.2654 28.1367 48.8904C28.3129 48.5125 28.4009 48.0097 28.4009 47.3818C28.4009 46.754 28.3129 46.254 28.1367 45.8818C27.9606 45.5068 27.7006 45.2369 27.3569 45.0722C27.016 44.9046 26.5955 44.8208 26.0955 44.8208H25.0898V49.9514Z"
      fill="white" />
  </g>
  <defs>
    <clipPath id="clip0_4164_363">
      <rect width="72" height="72" fill="white" />
    </clipPath>
  </defs>
</svg>
  