<svg width="90" height="112" viewBox="0 0 90 112" fill="none" xmlns="http://www.w3.org/2000/svg">
<path d="M64.7714 87.6886C71.2513 82.65 78.683 75.8895 86.6168 66.8701C86.6168 66.8701 90.0202 73.7549 86.3975 77.555C80.7931 83.2692 74.8132 88.5465 68.5037 93.3466C62.1631 98.0994 55.5126 102.361 48.6033 106.098C44.0443 108.474 39.1191 102.744 39.1191 102.744C49.7195 97.7612 58.1643 92.5326 64.7714 87.6886Z" fill="#404041"/>
<path d="M70.2495 95.4928C74.7778 91.9742 79.9727 87.2452 85.5185 80.9492C85.5185 80.9492 87.8978 85.7603 85.3672 88.4181C81.4512 92.4108 77.2742 96.0998 72.8678 99.4572C68.4344 102.778 63.7855 105.757 58.9562 108.371C55.77 110.032 52.3271 106.025 52.3271 106.025C59.7259 102.535 65.6313 98.8801 70.2495 95.4928Z" fill="#404041"/>
<path d="M76.924 106.028C78.8296 104.588 80.3602 102.979 81.3251 101.522L81.4808 101.402L80.7484 112.007L71.1611 109.193L71.4813 108.958C73.0931 108.463 75.0184 107.459 76.924 106.028Z" fill="#404041"/>
<path d="M23.5932 50.9452C23.9989 58.6627 26.5273 67.9096 28.775 74.9938C26.3628 75.8899 24.0713 76.6358 21.8652 77.4099C15.473 79.6313 11.2649 80.8018 8.14001 83.1593C7.67513 83.5088 6.46685 84.3134 6.09187 84.6817C3.10298 76.868 0.967121 64.9352 0.285136 52.3479C-0.548156 36.0685 0.322416 22.8267 4.53493 14.4032C6.34624 10.7907 29.1127 -1.60657 29.9745 0.173856C33.2068 6.85219 22.4792 29.7701 23.5932 50.9452Z" fill="url(#paint0_linear_261_4675)"/>
<path d="M29.4593 19.0827C31.3057 11.1705 32.4394 4.81121 31.6829 0.588867C39.5202 1.97755 50.4079 6.76287 60.8481 12.8782C68.657 17.4829 76.7794 22.5216 81.8668 27.1873C81.5247 27.3914 80.4656 28.074 80.1125 28.3414C76.9877 30.7012 74.0207 34.811 69.9222 40.5064C68.4421 42.5683 66.7821 45.2355 65.0979 47.4686C60.7122 43.0985 54.923 37.8862 49.6031 34.757C43.1999 30.9968 34.8034 28.149 27.9199 26.4296C28.4901 23.7484 28.8936 21.5082 29.4593 19.0827Z" fill="url(#paint1_linear_261_4675)"/>
<path d="M6.54602 86.7931C10.1292 80.3236 33.9811 77.9121 50.1842 65.6814C66.3874 53.4507 76.4987 30.2137 83.3887 28.7688C85.2286 28.3841 90.3139 55.1607 88.7898 58.928C85.2352 67.6941 76.0799 76.6548 63.6419 86.0894C51.1754 95.4724 40.2198 101.7 31.3058 102.343C27.477 102.611 5.58993 88.5196 6.54602 86.7931Z" fill="url(#paint2_linear_261_4675)"/>
<path d="M62.653 48.6817C62.9139 50.6123 54.478 59.9202 48.998 63.6711C43.4171 67.4899 32.8365 73.5654 30.5778 72.2096C29.1042 71.3299 25.4838 56.0404 25.2272 49.9531C24.975 43.9035 26.2447 30.0378 28.1152 28.8766C29.4594 28.0415 41.1804 31.9472 47.5265 35.7051C53.5635 39.2823 62.2407 45.637 62.653 48.6817Z" fill="url(#paint3_linear_261_4675)"/>
<defs>
<linearGradient id="paint0_linear_261_4675" x1="15.2932" y1="0.000270577" x2="15.2932" y2="84.6911" gradientUnits="userSpaceOnUse">
<stop stop-color="#FFD316"/>
<stop offset="1" stop-color="#F9A31F"/>
</linearGradient>
<linearGradient id="paint1_linear_261_4675" x1="69.6613" y1="42.6059" x2="28.4324" y2="4.06608" gradientUnits="userSpaceOnUse">
<stop stop-color="#FFD316"/>
<stop offset="1" stop-color="#F9A31F"/>
</linearGradient>
<linearGradient id="paint2_linear_261_4675" x1="21.1177" y1="102.878" x2="91.4078" y2="37.1686" gradientUnits="userSpaceOnUse">
<stop stop-color="#FFD316"/>
<stop offset="1" stop-color="#F9A31F"/>
</linearGradient>
<linearGradient id="paint3_linear_261_4675" x1="25.1877" y1="50.5841" x2="62.6596" y2="50.5841" gradientUnits="userSpaceOnUse">
<stop stop-color="#FFD316"/>
<stop offset="1" stop-color="#F9A31F"/>
</linearGradient>
</defs>
</svg>
