<svg width="24" height="24" viewBox="0 0 24 24" fill="none" xmlns="http://www.w3.org/2000/svg">
<path fill-rule="evenodd" clip-rule="evenodd" d="M16.325 14.8992L21.705 20.2792C21.8941 20.4685 22.0003 20.7251 22.0002 20.9926C22.0001 21.2601 21.8937 21.5166 21.7045 21.7057C21.5153 21.8948 21.2587 22.001 20.9912 22.0009C20.7236 22.0008 20.4671 21.8945 20.278 21.7052L14.898 16.3252C13.2897 17.5709 11.2673 18.1571 9.24214 17.9646C7.21699 17.7721 5.34124 16.8153 3.99649 15.2888C2.65174 13.7624 1.939 11.781 2.00326 9.74778C2.06753 7.71451 2.90396 5.78209 4.34242 4.34364C5.78087 2.90518 7.71329 2.06875 9.74656 2.00448C11.7798 1.94022 13.7612 2.65296 15.2876 3.99771C16.814 5.34246 17.7708 7.21821 17.9634 9.24336C18.1559 11.2685 17.5697 13.2909 16.324 14.8992H16.325ZM10 16.0002C11.5913 16.0002 13.1174 15.3681 14.2427 14.2429C15.3679 13.1177 16 11.5915 16 10.0002C16 8.40893 15.3679 6.88281 14.2427 5.75759C13.1174 4.63237 11.5913 4.00023 10 4.00023C8.40871 4.00023 6.88259 4.63237 5.75737 5.75759C4.63215 6.88281 4.00001 8.40893 4.00001 10.0002C4.00001 11.5915 4.63215 13.1177 5.75737 14.2429C6.88259 15.3681 8.40871 16.0002 10 16.0002Z" fill="#FFB800"/>
</svg>
